<?xml version="1.0" encoding="utf-8"?><svg xmlns="http://www.w3.org/2000/svg" xmlns:xlink="http://www.w3.org/1999/xlink"><symbol fill="none" viewBox="0 0 102 67" id="icon-01" xmlns="http://www.w3.org/2000/svg"><path d="M40.857 58.969l.811.585.002-.002-.813-.583zM6.01 58.617l-.818.576.001.002.817-.578zM40.682 9.18l-.82.573.004.005.816-.578zM27.937 48.817l-.951-.307-.003.01.954.297zm0-29.794l-.953.301.001.003.953-.305zm17.633 14.94c0 11.297-1.9 19.375-5.525 24.422l1.625 1.167c3.992-5.558 5.9-14.15 5.9-25.588h-2zm-5.523 24.42c-3.58 4.958-9.074 7.496-16.68 7.496v2c8.098 0 14.265-2.736 18.301-8.325l-1.621-1.17zm-16.68 7.496c-7.403 0-12.86-2.636-16.542-7.84l-1.633 1.156c4.112 5.812 10.226 8.684 18.175 8.684v-2zm-16.54-7.837C3.1 52.748 1.164 44.772 1.164 33.964h-2c0 10.99 1.96 19.449 6.027 25.229l1.636-1.151zM1.164 33.964c0-11.355 1.9-19.478 5.527-24.556L5.063 8.246C1.073 13.833-.836 22.467-.836 33.964h2zM6.691 9.408c3.582-5.015 9.075-7.579 16.676-7.579v-2c-8.102 0-14.269 2.768-18.304 8.417l1.628 1.162zM23.367 1.83c7.368 0 12.812 2.66 16.495 7.923l1.639-1.147C37.39 2.735 31.293-.17 23.367-.17v2zm16.499 7.928c3.752 5.293 5.704 13.31 5.704 24.207h2c0-11.076-1.973-19.582-6.073-25.364l-1.631 1.157zM16.435 33.964c0 7.258.448 12.404 1.413 15.301l1.898-.632c-.851-2.552-1.311-7.396-1.311-14.67h-2zm1.413 15.301c.488 1.465 1.172 2.66 2.106 3.495.954.853 2.11 1.276 3.413 1.276v-2c-.836 0-1.51-.258-2.08-.767-.59-.527-1.121-1.375-1.541-2.636l-1.898.632zm5.52 4.771c1.322 0 2.49-.438 3.446-1.32.933-.861 1.607-2.093 2.078-3.6l-1.909-.597c-.408 1.306-.936 2.183-1.526 2.728-.567.524-1.245.79-2.09.79v2zm5.521-4.911c.962-2.978 1.41-8.072 1.41-15.161h-2c0 7.09-.458 11.899-1.313 14.546l1.903.615zm1.41-15.161c0-7.12-.448-12.24-1.409-15.246l-1.905.609c.856 2.678 1.315 7.517 1.315 14.637h2zM28.892 18.72c-.484-1.531-1.163-2.781-2.091-3.656-.952-.897-2.115-1.35-3.433-1.35v2c.82 0 1.49.267 2.061.805.595.561 1.132 1.464 1.556 2.804l1.907-.603zm-5.524-5.005c-1.306 0-2.463.429-3.417 1.29-.933.844-1.616 2.05-2.103 3.527l1.9.627c.42-1.277.953-2.136 1.544-2.67.57-.514 1.243-.774 2.076-.774v-2zm-5.52 4.818c-.964 2.924-1.412 8.113-1.412 15.43h2c0-7.332.46-12.221 1.312-14.804l-1.9-.627zM91.131 66v1h1v-1h-1zm-17.622 0h-1v1h1v-1zm.263-45.352l1 .052.154-3.03L73 20.013l.772.635zM69.73 24.78l.637.772.015-.012.014-.013-.665-.747zm-7.294 6.02l-.776.632.635.781.777-.64-.636-.772zm-9.01-11.073l-.63-.776-.776.631.631.776.776-.631zM75.487 1.752v-1h-.356l-.275.225.631.775zm15.645 0h1v-1h-1v1zm0 63.248H73.509v2H91.13v-2zM74.51 66V31.986h-2V66h2zm0-34.014c0-4.117.087-7.879.262-11.286l-1.997-.103c-.177 3.448-.265 7.245-.265 11.39h2zM73 20.013c-1.044 1.27-2.353 2.61-3.936 4.02l1.33 1.493c1.641-1.461 3.027-2.875 4.15-4.242L73 20.014zm-3.907 3.995l-7.295 6.02 1.273 1.543 7.295-6.02-1.273-1.543zm-5.883 6.16l-9.008-11.073-1.552 1.262 9.009 11.074 1.551-1.262zm-9.153-9.667L76.118 2.527 74.855.977 52.795 18.95l1.262 1.55zm21.43-17.75H91.13V.753H75.486v2zm14.644-.999V66h2V1.752h-2z" fill="#FFA800"/><path d="M46.57 33.964c0 11.367-1.904 19.702-5.713 25.005-3.808 5.273-9.638 7.91-17.49 7.91-7.676 0-13.462-2.754-17.358-8.262C2.112 53.08.164 44.862.164 33.964c0-11.426 1.904-19.805 5.713-25.137C9.686 3.495 15.516.83 23.367.83c7.647 0 13.418 2.783 17.315 8.35 3.925 5.537 5.888 13.798 5.888 24.785zm-29.135 0c0 7.266.454 12.26 1.362 14.985.908 2.725 2.431 4.087 4.57 4.087 2.168 0 3.692-1.406 4.57-4.219.909-2.812 1.363-7.763 1.363-14.853 0-7.12-.454-12.1-1.363-14.941-.908-2.872-2.431-4.307-4.57-4.307-2.139 0-3.662 1.377-4.57 4.13-.908 2.755-1.362 7.794-1.362 15.118zM91.13 66H73.509V31.986c0-4.13.088-7.91.263-11.338-1.084 1.319-2.431 2.696-4.043 4.131l-7.294 6.02-9.01-11.073L75.487 1.752h15.645V66z" fill="url(#apaint0_linear_495:5103)"/><defs><linearGradient id="apaint0_linear_495:5103" x1="81.5" y1="2.633" x2="81.5" y2="67.584" gradientUnits="userSpaceOnUse"><stop offset=".758" stop-color="#FFA901" stop-opacity="0"/><stop offset=".761" stop-color="#FFA800"/></linearGradient></defs></symbol><symbol fill="none" viewBox="0 0 102 67" id="icon-02" xmlns="http://www.w3.org/2000/svg"><path d="M40.857 58.969l.811.585.002-.002-.813-.583zM6.01 58.617l-.818.576.001.002.817-.578zM40.682 9.18l-.82.573.004.005.816-.578zM27.937 48.817l-.951-.307-.003.01.954.297zm0-29.794l-.953.301.001.003.953-.305zm17.633 14.94c0 11.297-1.9 19.375-5.525 24.422l1.625 1.167c3.992-5.558 5.9-14.15 5.9-25.588h-2zm-5.523 24.42c-3.58 4.958-9.074 7.496-16.68 7.496v2c8.098 0 14.265-2.736 18.301-8.325l-1.621-1.17zm-16.68 7.496c-7.403 0-12.86-2.636-16.542-7.84l-1.633 1.156c4.112 5.812 10.226 8.684 18.175 8.684v-2zm-16.54-7.837C3.1 52.748 1.164 44.772 1.164 33.964h-2c0 10.99 1.96 19.449 6.027 25.229l1.636-1.151zM1.164 33.964c0-11.355 1.9-19.478 5.527-24.556L5.063 8.246C1.073 13.833-.836 22.467-.836 33.964h2zM6.691 9.408c3.582-5.015 9.075-7.579 16.676-7.579v-2c-8.102 0-14.269 2.768-18.304 8.417l1.628 1.162zM23.367 1.83c7.368 0 12.812 2.66 16.495 7.923l1.639-1.147C37.39 2.735 31.293-.17 23.367-.17v2zm16.499 7.928c3.752 5.293 5.704 13.31 5.704 24.207h2c0-11.076-1.973-19.582-6.073-25.364l-1.631 1.157zM16.435 33.964c0 7.258.448 12.404 1.413 15.301l1.898-.632c-.851-2.552-1.311-7.396-1.311-14.67h-2zm1.413 15.301c.488 1.465 1.172 2.66 2.106 3.495.954.853 2.11 1.276 3.413 1.276v-2c-.836 0-1.51-.258-2.08-.767-.59-.527-1.121-1.375-1.541-2.636l-1.898.632zm5.52 4.771c1.322 0 2.49-.438 3.446-1.32.933-.861 1.607-2.093 2.078-3.6l-1.909-.597c-.408 1.306-.936 2.183-1.526 2.728-.567.524-1.245.79-2.09.79v2zm5.521-4.911c.962-2.978 1.41-8.072 1.41-15.161h-2c0 7.09-.458 11.899-1.313 14.546l1.903.615zm1.41-15.161c0-7.12-.448-12.24-1.409-15.246l-1.905.609c.856 2.678 1.315 7.517 1.315 14.637h2zM28.892 18.72c-.484-1.531-1.163-2.781-2.091-3.656-.952-.897-2.115-1.35-3.433-1.35v2c.82 0 1.49.267 2.061.805.595.561 1.132 1.464 1.556 2.804l1.907-.603zm-5.524-5.005c-1.306 0-2.463.429-3.417 1.29-.933.844-1.616 2.05-2.103 3.527l1.9.627c.42-1.277.953-2.136 1.544-2.67.57-.514 1.243-.774 2.076-.774v-2zm-5.52 4.818c-.964 2.924-1.412 8.113-1.412 15.43h2c0-7.332.46-12.221 1.312-14.804l-1.9-.627zM99.041 66v1h1v-1h-1zm-46.626 0h-1v1h1v-1zm0-11.426l-.711-.703-.289.292v.411h1zM68.103 38.71l.712.703.005-.006.006-.006-.722-.691zm8.79-9.58l.776.63.006-.007-.782-.623zm2.856-4.439l-.911-.412-.004.01-.004.008.919.394zm-11.514-7.514l.487.873.004-.002-.49-.871zm-6.987 5.097l-.76.65.653.765.761-.658-.654-.757zm-9.536-11.162l-.667-.745-.729.651.636.744.76-.65zm8.35-6.328l.487.873.009-.005-.496-.868zM67.4 1.84l-.245-.97-.002.001.247.969zm20.083 1.186l-.41.912.003.002.407-.914zm7.603 6.285l-.836.548.007.01.829-.558zm1.758 16.084l-.958-.289-.003.012.96.277zm-2.9 6.328l.84.54.004-.005-.845-.535zm-5.274 6.504l-.72-.694-.005.005.725.689zM74.74 51.234l-.668-.744-.333.298v.446h1zm0 .44h-1v1h1v-1zm24.301 0h1v-1h-1v1zm0 13.326H52.415v2h46.626v-2zm-45.626 1V54.574h-2V66h2zm-.289-10.723l15.689-15.864-1.422-1.406-15.69 15.863 1.422 1.406zm15.7-15.876c4.478-4.683 7.437-7.905 8.844-9.642L76.115 28.5c-1.347 1.662-4.248 4.827-8.735 9.519l1.445 1.382zm8.849-9.648c1.401-1.76 2.415-3.32 2.993-4.668l-1.838-.788c-.477 1.113-1.367 2.512-2.72 4.21l1.565 1.246zm2.985-4.65a10.28 10.28 0 00.924-4.279h-2a8.278 8.278 0 01-.746 3.455l1.822.825zm.924-4.279c0-1.908-.63-3.515-1.96-4.701l-1.332 1.492c.839.748 1.292 1.777 1.292 3.21h2zm-1.96-4.701c-1.324-1.18-3.115-1.704-5.236-1.704v2c1.804 0 3.06.443 3.904 1.196l1.332-1.492zm-5.236-1.704c-2.223 0-4.44.646-6.644 1.886l.982 1.743c1.958-1.103 3.84-1.63 5.662-1.63v-2zm-6.64 1.884c-2.13 1.188-4.517 2.933-7.154 5.215l1.308 1.513c2.578-2.23 4.85-3.883 6.82-4.98l-.973-1.748zm-5.74 5.322l-9.536-11.162-1.52 1.299 9.536 11.162 1.52-1.3zm-9.63-9.767c3.29-2.94 6.009-4.993 8.171-6.2l-.975-1.747c-2.35 1.312-5.196 3.477-8.529 6.456l1.333 1.49zm8.18-6.206c2.174-1.242 4.536-2.19 7.09-2.843L67.153.87c-2.72.695-5.25 1.71-7.588 3.045l.993 1.736zm7.087-2.843c2.572-.65 5.476-.98 8.72-.98v-2c-3.377 0-6.45.344-9.21 1.041l.49 1.94zm8.72-.98c4.042 0 7.605.711 10.708 2.11l.821-1.824c-3.4-1.532-7.25-2.286-11.529-2.286v2zm10.71 2.11c3.126 1.396 5.503 3.372 7.175 5.92l1.672-1.097c-1.903-2.9-4.593-5.114-8.03-6.649l-.816 1.827zm7.182 5.93c1.7 2.524 2.553 5.36 2.553 8.538h2c0-3.56-.963-6.789-2.895-9.655l-1.658 1.117zm2.553 8.538c0 2.434-.31 4.665-.924 6.699l1.915.577c.676-2.243 1.01-4.67 1.01-7.276h-2zm-.927 6.711c-.587 2.038-1.511 4.061-2.784 6.07l1.689 1.07c1.364-2.152 2.373-4.348 3.017-6.587l-1.922-.553zm-2.78 6.064c-1.275 1.983-2.989 4.1-5.154 6.351l1.442 1.387c2.23-2.32 4.031-4.538 5.393-6.657l-1.682-1.081zm-5.158 6.356c-2.136 2.251-6.75 6.56-13.873 12.952l1.335 1.489c7.114-6.382 11.788-10.745 13.988-13.064l-1.45-1.377zM73.739 51.234v.44h2v-.44h-2zm1 1.44h24.302v-2H74.739v2zm23.302-1V66h2V51.674h-2z" fill="#FFA800"/><path d="M46.57 33.964c0 11.367-1.904 19.702-5.713 25.005-3.808 5.273-9.638 7.91-17.49 7.91-7.676 0-13.462-2.754-17.358-8.262C2.112 53.08.164 44.862.164 33.964c0-11.426 1.904-19.805 5.713-25.137C9.686 3.495 15.516.83 23.367.83c7.647 0 13.418 2.783 17.315 8.35 3.925 5.537 5.888 13.798 5.888 24.785zm-29.135 0c0 7.266.454 12.26 1.362 14.985.908 2.725 2.431 4.087 4.57 4.087 2.168 0 3.692-1.406 4.57-4.219.909-2.812 1.363-7.763 1.363-14.853 0-7.12-.454-12.1-1.363-14.941-.908-2.872-2.431-4.307-4.57-4.307-2.139 0-3.662 1.377-4.57 4.13-.908 2.755-1.362 7.794-1.362 15.118zM99.04 66H52.415V54.574L68.103 38.71c4.483-4.688 7.413-7.88 8.79-9.58 1.376-1.729 2.329-3.208 2.856-4.439.557-1.23.835-2.52.835-3.867 0-1.67-.542-2.988-1.626-3.955-1.084-.967-2.607-1.45-4.57-1.45-2.022 0-4.073.586-6.153 1.758-2.05 1.142-4.38 2.842-6.987 5.097l-9.536-11.162c3.31-2.959 6.094-5.068 8.35-6.328 2.255-1.289 4.702-2.27 7.338-2.944 2.666-.674 5.655-1.01 8.965-1.01 4.16 0 7.866.732 11.118 2.196 3.282 1.465 5.816 3.56 7.603 6.285 1.816 2.695 2.725 5.727 2.725 9.096 0 2.52-.323 4.849-.967 6.988-.615 2.138-1.582 4.248-2.9 6.328-1.319 2.05-3.077 4.218-5.274 6.504-2.168 2.285-6.812 6.62-13.93 13.007v.44h24.3V66z" fill="url(#bpaint0_linear_490:4643)"/><defs><linearGradient id="bpaint0_linear_490:4643" x1="81.5" y1="2.633" x2="81.5" y2="67.584" gradientUnits="userSpaceOnUse"><stop offset=".562" stop-color="#FFA901" stop-opacity="0"/><stop offset=".563" stop-color="#FFA800"/></linearGradient></defs></symbol><symbol fill="none" viewBox="0 0 102 67" id="icon-03" xmlns="http://www.w3.org/2000/svg"><path d="M40.857 58.969l.811.585.002-.002-.813-.583zM6.01 58.617l-.818.576.001.002.817-.578zM40.682 9.18l-.82.573.004.005.816-.578zM27.937 48.817l-.951-.307-.003.01.954.297zm0-29.794l-.953.301.001.003.953-.305zm17.633 14.94c0 11.297-1.9 19.375-5.525 24.422l1.625 1.167c3.992-5.558 5.9-14.15 5.9-25.588h-2zm-5.523 24.42c-3.58 4.958-9.074 7.496-16.68 7.496v2c8.098 0 14.265-2.736 18.301-8.325l-1.621-1.17zm-16.68 7.496c-7.403 0-12.86-2.636-16.542-7.84l-1.633 1.156c4.112 5.812 10.226 8.684 18.175 8.684v-2zm-16.54-7.837C3.1 52.748 1.164 44.772 1.164 33.964h-2c0 10.99 1.96 19.449 6.027 25.229l1.636-1.151zM1.164 33.964c0-11.355 1.9-19.478 5.527-24.556L5.063 8.246C1.073 13.833-.836 22.467-.836 33.964h2zM6.691 9.408c3.582-5.015 9.075-7.579 16.676-7.579v-2c-8.102 0-14.269 2.768-18.304 8.417l1.628 1.162zM23.367 1.83c7.368 0 12.812 2.66 16.495 7.923l1.639-1.147C37.39 2.735 31.293-.17 23.367-.17v2zm16.499 7.928c3.752 5.293 5.704 13.31 5.704 24.207h2c0-11.076-1.973-19.582-6.073-25.364l-1.631 1.157zM16.435 33.964c0 7.258.448 12.404 1.413 15.301l1.898-.632c-.851-2.552-1.311-7.396-1.311-14.67h-2zm1.413 15.301c.488 1.465 1.172 2.66 2.106 3.495.954.853 2.11 1.276 3.413 1.276v-2c-.836 0-1.51-.258-2.08-.767-.59-.527-1.121-1.375-1.541-2.636l-1.898.632zm5.52 4.771c1.322 0 2.49-.438 3.446-1.32.933-.861 1.607-2.093 2.078-3.6l-1.909-.597c-.408 1.306-.936 2.183-1.526 2.728-.567.524-1.245.79-2.09.79v2zm5.521-4.911c.962-2.978 1.41-8.072 1.41-15.161h-2c0 7.09-.458 11.899-1.313 14.546l1.903.615zm1.41-15.161c0-7.12-.448-12.24-1.409-15.246l-1.905.609c.856 2.678 1.315 7.517 1.315 14.637h2zM28.892 18.72c-.484-1.531-1.163-2.781-2.091-3.656-.952-.897-2.115-1.35-3.433-1.35v2c.82 0 1.49.267 2.061.805.595.561 1.132 1.464 1.556 2.804l1.907-.603zm-5.524-5.005c-1.306 0-2.463.429-3.417 1.29-.933.844-1.616 2.05-2.103 3.527l1.9.627c.42-1.277.953-2.136 1.544-2.67.57-.514 1.243-.774 2.076-.774v-2zm-5.52 4.818c-.964 2.924-1.412 8.113-1.412 15.43h2c0-7.332.46-12.221 1.312-14.804l-1.9-.627zm75.393 7.432l.76.65.003-.004-.763-.646zm-10.547 6.196l-.27-.963-.73.205v.758h1zm0 .264h-1v.882l.876.11.124-.992zm8.965 29.311l-.585-.81-.003.001.588.81zm-29.311 4.395l-.168.986h.002l.166-.986zm-9.537-2.725h-1v.687l.642.247.358-.934zm0-14.414l.455-.89-1.455-.743v1.633h1zm8.57 3.208l-.236.972.012.003.224-.975zm16.392-.571l.52.853.004-.002-.525-.851zm1.274-9.097l-.729.685.005.005.006.006.718-.696zM74.65 40.38l-.239.97.013.004.226-.974zm-11.865-.747h-1v1h1v-1zm0-13.052v-1h-1v1h1zM78.08 16.034l-.537.844.009.005.528-.849zm-17.973 2.9l-.85.528.53.853.85-.533-.53-.847zm-7.209-11.6l-.567-.823-.785.541.503.81.85-.528zm10.415-5.01l-.268-.963h-.002l.27.963zm32.575 13.36c0 3.762-1.142 6.957-3.41 9.637l1.525 1.292c2.594-3.063 3.885-6.723 3.885-10.93h-2zm-3.408 9.633c-2.271 2.654-5.595 4.633-10.056 5.883l.54 1.926c4.737-1.328 8.444-3.48 11.036-6.509l-1.52-1.3zm-10.787 6.846v.264h2v-.264h-2zm.876 1.256c5.244.66 9.031 2.212 11.5 4.547 2.443 2.309 3.708 5.49 3.708 9.666h2c0-4.613-1.415-8.361-4.334-11.12-2.892-2.734-7.147-4.389-12.625-5.077l-.25 1.984zm15.208 14.213c0 5.663-2.225 10.06-6.704 13.296l1.17 1.621c5.014-3.62 7.534-8.627 7.534-14.917h-2zM91.07 60.928c-4.485 3.26-10.813 4.95-19.1 4.95v2c8.53 0 15.328-1.736 20.276-5.332l-1.176-1.618zm-19.1 4.95c-3.409 0-6.56-.245-9.457-.732l-.332 1.972c3.021.508 6.285.76 9.79.76v-2zm-9.456-.732c-2.85-.485-5.965-1.372-9.345-2.672l-.717 1.867c3.475 1.336 6.719 2.265 9.727 2.777l.335-1.972zm-8.704-1.739V48.993h-2v14.414h2zm-1.454-13.523c2.878 1.469 5.808 2.566 8.788 3.289l.471-1.944c-2.82-.683-5.603-1.724-8.35-3.127l-.91 1.782zm8.8 3.292c2.987.687 5.759 1.036 8.31 1.036v-2c-2.371 0-4.99-.325-7.862-.985l-.448 1.949zm8.31 1.036c3.856 0 6.855-.526 8.826-1.729l-1.041-1.707c-1.486.907-4.024 1.436-7.785 1.436v2zm8.83-1.73c2.09-1.29 3.112-3.318 3.112-5.906h-2c0 1.983-.735 3.323-2.161 4.203l1.05 1.702zm3.112-5.906c0-1.925-.5-3.557-1.644-4.739l-1.436 1.392c.672.694 1.08 1.757 1.08 3.347h2zm-1.633-4.727c-1.1-1.171-2.784-1.953-4.898-2.443l-.451 1.948c1.929.447 3.175 1.101 3.891 1.864l1.458-1.37zm-4.884-2.44c-2.131-.525-4.857-.776-8.15-.776v2c3.211 0 5.759.247 7.671.718l.479-1.942zm-8.15-.776h-3.955v2h3.955v-2zm-2.955 1V26.58h-2v13.052h2zm-1-12.052h4.043v-2h-4.043v2zm4.043 0c4.462 0 7.96-.565 10.376-1.802 1.223-.625 2.197-1.437 2.863-2.459.669-1.027.989-2.208.989-3.506h-2c0 .957-.232 1.75-.665 2.414-.436.67-1.116 1.268-2.098 1.77-1.992 1.02-5.109 1.583-9.465 1.583v2zm14.228-7.767c0-2.006-.806-3.606-2.45-4.629l-1.056 1.698c.993.618 1.506 1.538 1.506 2.93h2zm-2.441-4.623c-1.505-.958-3.458-1.387-5.766-1.387v2c2.086 0 3.62.391 4.692 1.074l1.074-1.688zm-5.766-1.387c-4.334 0-8.764 1.456-13.275 4.283l1.061 1.695c4.278-2.68 8.344-3.978 12.214-3.978v-2zm-11.895 4.603L53.748 6.805l-1.699 1.056 7.207 11.601 1.699-1.055zm-7.489-10.25c3.319-2.29 6.691-3.908 10.118-4.871l-.541-1.925C59.38 2.39 55.809 4.11 52.331 6.51l1.135 1.646zm10.116-4.87c3.469-.967 7.463-1.458 11.992-1.458v-2c-4.67 0-8.85.505-12.529 1.531l.537 1.927zm11.992-1.458c6.533 0 11.52 1.297 15.073 3.775l1.144-1.64C87.784 1.169 82.343-.17 75.574-.17v2zm15.073 3.775c3.51 2.449 5.24 5.775 5.24 10.079h2c0-4.954-2.047-8.894-6.096-11.719l-1.144 1.64z" fill="#FFA800"/><path d="M46.57 33.964c0 11.367-1.904 19.702-5.713 25.005-3.808 5.273-9.638 7.91-17.49 7.91-7.676 0-13.462-2.754-17.358-8.262C2.112 53.08.164 44.862.164 33.964c0-11.426 1.904-19.805 5.713-25.137C9.686 3.495 15.516.83 23.367.83c7.647 0 13.418 2.783 17.315 8.35 3.925 5.537 5.888 13.798 5.888 24.785zm-29.135 0c0 7.266.454 12.26 1.362 14.985.908 2.725 2.431 4.087 4.57 4.087 2.168 0 3.692-1.406 4.57-4.219.909-2.812 1.363-7.763 1.363-14.853 0-7.12-.454-12.1-1.363-14.941-.908-2.872-2.431-4.307-4.57-4.307-2.139 0-3.662 1.377-4.57 4.13-.908 2.755-1.362 7.794-1.362 15.118zm79.453-18.281c0 3.984-1.216 7.412-3.648 10.283-2.431 2.842-5.947 4.907-10.547 6.196v.264c10.723 1.347 16.084 6.416 16.084 15.205 0 5.976-2.373 10.679-7.119 14.106-4.717 3.428-11.28 5.142-19.687 5.142-3.457 0-6.665-.25-9.624-.747-2.93-.498-6.109-1.406-9.537-2.725V48.993c2.813 1.436 5.67 2.505 8.57 3.208 2.93.674 5.625 1.01 8.086 1.01 3.808 0 6.577-.526 8.306-1.581 1.757-1.084 2.636-2.769 2.636-5.054 0-1.758-.454-3.105-1.362-4.043-.908-.967-2.373-1.684-4.395-2.153-2.021-.498-4.658-.747-7.91-.747h-3.955V26.58h4.043c8.819 0 13.228-2.256 13.228-6.767 0-1.7-.66-2.96-1.978-3.78-1.289-.82-3.032-1.23-5.23-1.23-4.101 0-8.349 1.377-12.744 4.13L52.898 7.334c3.399-2.344 6.87-4.014 10.415-5.01C66.888 1.327 70.975.83 75.575.83c6.65 0 11.865 1.318 15.645 3.955 3.779 2.637 5.669 6.27 5.669 10.899z" fill="url(#cpaint0_linear_490:4654)"/><defs><linearGradient id="cpaint0_linear_490:4654" x1="81.5" y1="2.633" x2="81.5" y2="67.584" gradientUnits="userSpaceOnUse"><stop offset=".375" stop-color="#FFA901" stop-opacity="0"/><stop offset=".377" stop-color="#FFA800"/></linearGradient></defs></symbol><symbol fill="none" viewBox="0 0 102 67" id="icon-04" xmlns="http://www.w3.org/2000/svg"><path d="M40.857 58.969l.811.585.002-.002-.813-.583zM6.01 58.617l-.818.576.001.002.817-.578zM40.682 9.18l-.82.573.004.005.816-.578zM27.937 48.817l-.951-.307-.003.01.954.297zm0-29.794l-.953.301.001.003.953-.305zm17.633 14.94c0 11.297-1.9 19.375-5.525 24.422l1.625 1.167c3.992-5.558 5.9-14.15 5.9-25.588h-2zm-5.523 24.42c-3.58 4.958-9.074 7.496-16.68 7.496v2c8.098 0 14.265-2.736 18.301-8.325l-1.621-1.17zm-16.68 7.496c-7.403 0-12.86-2.636-16.542-7.84l-1.633 1.156c4.112 5.812 10.226 8.684 18.175 8.684v-2zm-16.54-7.837C3.1 52.748 1.164 44.772 1.164 33.964h-2c0 10.99 1.96 19.449 6.027 25.229l1.636-1.151zM1.164 33.964c0-11.355 1.9-19.478 5.527-24.556L5.063 8.246C1.073 13.833-.836 22.467-.836 33.964h2zM6.691 9.408c3.582-5.015 9.075-7.579 16.676-7.579v-2c-8.102 0-14.269 2.768-18.304 8.417l1.628 1.162zM23.367 1.83c7.368 0 12.812 2.66 16.495 7.923l1.639-1.147C37.39 2.735 31.293-.17 23.367-.17v2zm16.499 7.928c3.752 5.293 5.704 13.31 5.704 24.207h2c0-11.076-1.973-19.582-6.073-25.364l-1.631 1.157zM16.435 33.964c0 7.258.448 12.404 1.413 15.301l1.898-.632c-.851-2.552-1.311-7.396-1.311-14.67h-2zm1.413 15.301c.488 1.465 1.172 2.66 2.106 3.495.954.853 2.11 1.276 3.413 1.276v-2c-.836 0-1.51-.258-2.08-.767-.59-.527-1.121-1.375-1.541-2.636l-1.898.632zm5.52 4.771c1.322 0 2.49-.438 3.446-1.32.933-.861 1.607-2.093 2.078-3.6l-1.909-.597c-.408 1.306-.936 2.183-1.526 2.728-.567.524-1.245.79-2.09.79v2zm5.521-4.911c.962-2.978 1.41-8.072 1.41-15.161h-2c0 7.09-.458 11.899-1.313 14.546l1.903.615zm1.41-15.161c0-7.12-.448-12.24-1.409-15.246l-1.905.609c.856 2.678 1.315 7.517 1.315 14.637h2zM28.892 18.72c-.484-1.531-1.163-2.781-2.091-3.656-.952-.897-2.115-1.35-3.433-1.35v2c.82 0 1.49.267 2.061.805.595.561 1.132 1.464 1.556 2.804l1.907-.603zm-5.524-5.005c-1.306 0-2.463.429-3.417 1.29-.933.844-1.616 2.05-2.103 3.527l1.9.627c.42-1.277.953-2.136 1.544-2.67.57-.514 1.243-.774 2.076-.774v-2zm-5.52 4.818c-.964 2.924-1.412 8.113-1.412 15.43h2c0-7.332.46-12.221 1.312-14.804l-1.9-.627zm83.259 35.03v1h1v-1h-1zm-7.075 0v-1h-1v1h1zm0 12.436v1h1v-1h-1zm-17.138 0h-1v1h1v-1zm0-12.437h1v-1h-1v1zm-25.62 0h-1v1h1v-1zm0-12.744l-.826-.564-.175.255v.31h1zM77.99 1.752v-1h-.527l-.298.435.825.565zm16.04 0h1v-1h-1v1zm0 38.848h-1v1h1v-1zm7.075 0h1v-1h-1v1zm-24.213 0v1h1v-1h-1zm.131-13.14l-.999-.049v.012l1 .037zm.264-3.78l.895.448.723-1.447h-1.618v1zm-.483 0v-1h-.652l-.263.597.915.404zm-3.384 6.33l.83.558.006-.01.005-.008-.841-.54zM66.3 40.6l-.83-.557-1.046 1.558h1.877v-1zm34.805 11.965H94.03v2h7.075v-2zm-8.075 1V66h2V53.563h-2zm1 11.436H76.893v2H94.03v-2zm-16.138 1V53.563h-2V66h2zm-1-13.437h-25.62v2h25.62v-2zm-24.62 1V40.82h-2v12.744h2zm-.175-12.18l26.72-39.067-1.651-1.129-26.719 39.068 1.65 1.129zM77.99 2.753h16.04v-2H77.99v2zm15.04-1V40.6h2V1.752h-2zm1 39.848h7.075v-2H94.03v2zm6.075-1v12.963h2V40.6h-2zm-22.213 0V33.13h-2v7.47h2zm0-7.471c0-1.388.043-3.264.13-5.632l-1.998-.074a162.117 162.117 0 00-.132 5.706h2zm.13-5.62c.059-1.2.11-2.107.153-2.726.022-.311.04-.54.057-.694.008-.079.015-.126.019-.15.002-.012.001-.006-.003.01a.9.9 0 01-.067.179l-1.788-.895c-.058.115-.083.22-.09.25-.011.049-.02.096-.026.134a4.663 4.663 0 00-.034.26c-.02.19-.041.448-.063.767-.045.64-.097 1.564-.155 2.767l1.997.098zm-.735-4.828h-.483v2h.483v-2zm-1.398.596a45.36 45.36 0 01-3.31 6.192l1.683 1.08a47.37 47.37 0 003.456-6.464l-1.83-.808zM72.59 29.45l-7.12 10.59 1.66 1.117 7.12-10.591-1.66-1.116zM66.301 41.6h10.592v-2H66.302v2z" fill="#FFA800"/><path d="M46.57 33.964c0 11.367-1.904 19.702-5.713 25.005-3.808 5.273-9.638 7.91-17.49 7.91-7.676 0-13.462-2.754-17.358-8.262C2.112 53.08.164 44.862.164 33.964c0-11.426 1.904-19.805 5.713-25.137C9.686 3.495 15.516.83 23.367.83c7.647 0 13.418 2.783 17.315 8.35 3.925 5.537 5.888 13.798 5.888 24.785zm-29.135 0c0 7.266.454 12.26 1.362 14.985.908 2.725 2.431 4.087 4.57 4.087 2.168 0 3.692-1.406 4.57-4.219.909-2.812 1.363-7.763 1.363-14.853 0-7.12-.454-12.1-1.363-14.941-.908-2.872-2.431-4.307-4.57-4.307-2.139 0-3.662 1.377-4.57 4.13-.908 2.755-1.362 7.794-1.362 15.118zm83.671 19.6h-7.075V66H76.893V53.563h-25.62V40.82L77.99 1.752h16.04V40.6h7.075v12.963zM76.893 40.6v-7.471c0-1.406.043-3.296.131-5.669.118-2.402.206-3.662.264-3.78h-.483a46.37 46.37 0 01-3.384 6.329l-7.12 10.59h10.592z" fill="url(#dpaint0_linear_490:4663)"/><defs><linearGradient id="dpaint0_linear_490:4663" x1="81.5" y1="2.633" x2="81.5" y2="67.584" gradientUnits="userSpaceOnUse"><stop offset=".122" stop-color="#FFA901" stop-opacity="0"/><stop offset=".125" stop-color="#FFA800"/></linearGradient></defs></symbol><symbol fill="none" viewBox="0 0 102 67" id="icon-05" xmlns="http://www.w3.org/2000/svg"><path d="M46.57 33.964c0 11.367-1.904 19.702-5.713 25.005-3.808 5.273-9.638 7.91-17.49 7.91-7.676 0-13.462-2.754-17.358-8.262C2.112 53.08.164 44.862.164 33.964c0-11.426 1.904-19.805 5.713-25.137C9.686 3.495 15.516.83 23.367.83c7.647 0 13.418 2.783 17.315 8.35 3.925 5.537 5.888 13.798 5.888 24.785zm-29.135 0c0 7.266.454 12.26 1.362 14.985.908 2.725 2.431 4.087 4.57 4.087 2.168 0 3.692-1.406 4.57-4.219.909-2.812 1.363-7.763 1.363-14.853 0-7.12-.454-12.1-1.363-14.941-.908-2.872-2.431-4.307-4.57-4.307-2.139 0-3.662 1.377-4.57 4.13-.908 2.755-1.362 7.794-1.362 15.118zM78.915 23.9c3.69 0 7.016.865 9.975 2.593 2.988 1.7 5.302 4.116 6.943 7.251 1.67 3.135 2.505 6.753 2.505 10.855 0 7.177-2.168 12.685-6.504 16.523-4.307 3.838-10.84 5.757-19.6 5.757-7.5 0-13.623-1.157-18.369-3.472V49.17c2.55 1.172 5.42 2.139 8.613 2.9 3.223.762 5.992 1.143 8.306 1.143 3.223 0 5.698-.674 7.427-2.022 1.728-1.377 2.593-3.398 2.593-6.064 0-2.461-.88-4.38-2.637-5.757-1.758-1.377-4.424-2.065-7.998-2.065-2.725 0-5.669.512-8.833 1.538l-6.372-3.164L57.38 1.752h36.65V16.21H72.146l-.79 8.481c2.285-.439 3.91-.673 4.877-.703.967-.058 1.86-.088 2.681-.088z" fill="#FFA800"/></symbol><symbol viewBox="0 0 20 15" id="icon-arrow" xmlns="http://www.w3.org/2000/svg"><path fill-rule="evenodd" clip-rule="evenodd" d="M17 0L8.5 8.5 2.8 2.8 0 5.7l8.5 8.4L19.8 2.8 17 0z"/></symbol><symbol viewBox="0 0 7 12" id="icon-arrow-right" xmlns="http://www.w3.org/2000/svg"><path fill-rule="evenodd" clip-rule="evenodd" d="M.71.145L0 .855l5.15 5.14L0 11.145l.71.71 5.85-5.86L.71.145z"/></symbol><symbol fill="none" viewBox="0 0 8 12" id="icon-chevron" xmlns="http://www.w3.org/2000/svg"><path d="M1.5 11l5-5-5-5"/></symbol><symbol fill="none" viewBox="0 0 16 16" id="icon-fb" xmlns="http://www.w3.org/2000/svg"><g clip-path="url(#iclip0_503:6573)"><path d="M6.403 9.377H4.421C4.1 9.377 4 9.252 4 8.94V6.425c0-.333.12-.437.42-.437h1.983v-1.83c0-.831.14-1.621.54-2.35A3.355 3.355 0 018.727.27c.499-.187 1-.27 1.541-.27h1.962c.28 0 .4.125.4.416v2.37c0 .291-.12.416-.4.416-.54 0-1.081 0-1.622.02-.54 0-.82.271-.82.853-.02.624 0 1.227 0 1.871h2.322c.32 0 .44.125.44.458v2.515c0 .333-.1.437-.44.437H9.787v6.778c0 .354-.1.478-.46.478H6.824c-.3 0-.421-.124-.421-.436v-6.8z" fill="#2A2A2A"/></g><defs><clipPath id="iclip0_503:6573"><path fill="#fff" d="M0 0h16v16H0z"/></clipPath></defs></symbol><symbol fill="none" viewBox="0 0 203 29" id="icon-logo" xmlns="http://www.w3.org/2000/svg"><g clip-path="url(#jclip0_601:208)"><path fill-rule="evenodd" clip-rule="evenodd" d="M7.76 0h4v4.013h-4V0zm6.898 4.014h.032c5.792 0 10.487 4.713 10.487 10.527 0 5.814-4.695 10.528-10.487 10.528h-.065v-1.956a2.288 2.288 0 01.065 0c4.685 0 8.483-3.838 8.483-8.572 0-4.734-3.798-8.572-8.483-8.572a3.943 3.943 0 00-.065 0V4.015h.033z" fill="#FFA800"/><path fill-rule="evenodd" clip-rule="evenodd" d="M14.622 0v2.007c6.872 0 12.443 5.592 12.443 12.49 0 6.9-5.571 12.492-12.443 12.492v2.007c7.976 0 14.442-6.491 14.442-14.498S22.598 0 14.622 0zM5.679 22.871c-2.103-1.894-3.468-4.948-3.468-8.394 0-2.998 1.034-5.7 2.688-7.599V3.824C2.07 6.113.206 10.03.206 14.477c0 4.845 2.213 9.06 5.473 11.227v-2.833zm6.278-14.89v6.42l1.62-3.34-1.458-3.08h-.162zm-.364 18.347v-9.72l-1.617 4.86 1.617 4.86zm-3.617-9.72v9.72l1.617-4.86-1.617-4.86zM7.612 7.98H7.45l-1.459 3.08 1.621 3.34V7.98zm3.16 0v-.823H8.797v.823H8.51l1.274 2.679 1.275-2.679h-.286zm-.786 3.102L11.56 14.4h.033V7.98h-.131l-1.476 3.102zm-1.19 4.497v.824h-.505l1.493 4.488 1.494-4.488h-.505v-.824H8.796zm1.977-.365V14.4h.385l-1.374-2.895L8.411 14.4h.385v.814h1.977zm-1.19-4.132L8.107 7.981h-.131v6.42h.032l1.575-3.318zm2.938-3.102l1.423 3.002-.002.16L12.34 14.4h.438v2.003h-.82v10.584h.82V29h-2.004v-2.012h.657l-1.646-4.944-1.645 4.944h.657V29H6.792v-2.012h.82V16.404h-.82V14.4h.438l-1.604-3.258v-.16L7.048 7.98h-.256V5.97h2.004v.823h1.977V5.97h2.004v2.01h-.256z" fill="#7048B8"/><path fill-rule="evenodd" clip-rule="evenodd" d="M40.064 3.686v2.03h1.99v-2.03h-1.99zm0 3.375v14.093h1.99V7.061h-1.99zm7.534 3.198c.77-.567 1.685-1.152 2.666-1.152h1.166c2.198 0 3.98 1.791 3.98 4v7.985h-1.99v-7.985c0-1.104-.891-2-1.99-2h-1.166a2.993 2.993 0 00-2.986 3v7.047h-1.99V9.123h1.99v.975a.2.2 0 00.32.161zm11.497-1.167V6.107h1.99v2.985h2.83v2h-2.83v7.034a.995.995 0 001.44.895l1.88-.943v2.235l-.993.498c-1.984.994-4.317-.457-4.317-2.685v-7.034h-1.71v-2h1.71zM110.156 6.1v2.984h-1.71v2h1.71v7.034c0 2.229 2.332 3.68 4.317 2.685l.994-.498v-2.234l-1.881.942a.996.996 0 01-1.44-.895v-7.034h2.83v-2h-2.83V6.101h-1.99zM71.13 9.154c-2.954 0-5.349 2.473-5.349 5.522v.931c0 3.05 2.395 5.522 5.349 5.522 1.06 0 2.681-.249 4.353-.987v-2.279c-1.666.927-3.385 1.212-4.353 1.212-1.76 0-3.205-1.399-3.347-3.179h8.695v-1.22c0-3.05-2.394-5.522-5.348-5.522zm0 2.055c1.576 0 2.898 1.12 3.26 2.633h-6.52c.361-1.512 1.684-2.633 3.26-2.633zm21.58-1.002c0 .173.207.267.343.162a5.926 5.926 0 013.638-1.242h.467v2h-.467c-2.198 0-3.98 1.79-3.98 4v6.003h-1.99V9.123h1.99v1.084zm40.21.146c-.137.106-.343.011-.343-.161V9.107h-1.99v12.008h1.99v-6.004c0-2.209 1.782-4 3.981-4h.465v-2h-.465c-1.37 0-2.631.463-3.638 1.242zm-10.348-1.246c-3.087 0-5.59 2.515-5.59 5.618v.78c0 3.103 2.503 5.618 5.59 5.618 3.086 0 5.589-2.515 5.589-5.617v-.781c0-3.103-2.503-5.618-5.589-5.618zm-3.6 5.618a3.608 3.608 0 013.6-3.618 3.608 3.608 0 013.599 3.618v.78a3.608 3.608 0 01-3.599 3.618c-1.989 0-3.6-1.62-3.6-3.617v-.781zm-20.82-2.405l.121-.06a11.796 11.796 0 013.523-1.111 2.36 2.36 0 01.349-.026h.603c1.043 0 1.889.85 1.889 1.898v.32h-3.499c-2.361 0-4.276 1.925-4.276 4.298a3.464 3.464 0 003.456 3.472h.814c.097 0 .232.001.363-.006a6.272 6.272 0 003.142-1.112v1.13h1.99v-8.102c0-2.153-1.736-3.898-3.879-3.898h-.603a4.35 4.35 0 00-.642.048c-1.153.172-2.278.49-3.35.945v2.204zm6.485 3.022v1.833a4.276 4.276 0 01-3.257 1.933 3.535 3.535 0 01-.218.003h-.844a1.47 1.47 0 01-1.465-1.472 2.291 2.291 0 012.285-2.297h3.499zm-21.395.054c1.465 0 2.41-1.08 2.41-2.12 0-1.042-.945-2.122-2.41-2.122-1.466 0-2.41 1.08-2.41 2.121s.944 2.121 2.41 2.121zm0 2c2.43 0 4.4-1.845 4.4-4.12a3.89 3.89 0 00-.413-1.747h1.237v-2h-3.388a4.635 4.635 0 00-1.836-.375c-2.43 0-4.4 1.845-4.4 4.121 0 1.034.406 1.978 1.077 2.702l-2.161 2.256c-.578.603-.153 1.609.68 1.609h.42c-.694.63-1.105 1.415-1.105 2.265 0 2.08 2.457 3.766 5.489 3.766 3.031 0 5.488-1.686 5.488-3.766s-2.457-3.765-5.488-3.765a7.99 7.99 0 00-.114 0h-2.935a.2.2 0 01-.143-.339l1.07-1.117c.629.325 1.352.51 2.122.51zM86 23.118c.631-.433.74-.825.74-1.01 0-.186-.109-.578-.74-1.012-.622-.426-1.591-.754-2.76-.754-1.167 0-2.136.328-2.758.754-.632.434-.74.826-.74 1.011 0 .186.108.578.74 1.011.621.427 1.59.755 2.759.755 1.168 0 2.137-.328 2.759-.755zM202.793 3.127v18.012h-.995V3.127h.995zm-55.444 18.027V4.123h-.995v17.031h.995zm3.265-17.031h-.871v1h.871c3.572 0 6.468 2.91 6.468 6.5v1.125c0 4.073-3.286 7.375-7.339 7.375v1c4.602 0 8.334-3.75 8.334-8.375v-1.125c0-4.142-3.342-7.5-7.463-7.5zm11.319 3.453v.953h-.995v-.953h.995zm0 1.938v11.609h-.995V9.513h.995zm16.356-.985v-.953h-.995v.953h.995zm0 12.594V9.513h-.995v11.61h.995zm4.309-10.594l.011 8.003a2.604 2.604 0 002.597 2.607c.32 0 .637-.06.935-.175l2.007-.777v-.932l-.048-.122-2.317.898a1.6 1.6 0 01-2.179-1.5l-.011-8.002h4.135v-1h-4.136l-.005-3.407-.995.002.005 3.405h-1.882v1h1.883zm11.372-1.325c.251-.043.505-.065.759-.065 2.127 0 3.851 1.732 3.851 3.87v8.114h-.995v-2.401c-.724.926-1.489 1.503-2.125 1.857-.909.505-1.946.544-2.841.544h-.105a3.295 3.295 0 01-3.287-3.302c0-2.21 1.784-4.003 3.984-4.003h4.374v-.81a2.863 2.863 0 00-2.856-2.87 3.43 3.43 0 00-.589.052l-.659.115a8.26 8.26 0 00-1.939.591l-.783.349V10.15l.379-.169a9.237 9.237 0 012.173-.663l.659-.115zm3.615 5.614v2.073c-.843 1.583-1.86 2.398-2.607 2.813-.661.368-1.46.419-2.359.419h-.105a2.297 2.297 0 01-2.292-2.302 2.996 2.996 0 012.989-3.003h4.374zm-27.909 1.649c1.88 0 3.296-1.423 3.296-3.047s-1.416-3.047-3.296-3.047c-1.881 0-3.297 1.423-3.297 3.047s1.416 3.047 3.297 3.047zm0 1c2.37 0 4.291-1.812 4.291-4.047 0-1.133-.493-2.156-1.288-2.89h1.801v-1h-3.619a4.535 4.535 0 00-1.185-.157c-2.371 0-4.292 1.812-4.292 4.047 0 1.149.508 2.186 1.323 2.923l-1.283 1.698c-.484.64-.056 1.553.724 1.603-.905.622-1.464 1.482-1.464 2.432 0 1.899 2.235 3.438 4.992 3.438 2.756 0 4.991-1.54 4.991-3.438 0-1.898-2.235-3.437-4.991-3.437a7.65 7.65 0 00-.34.007h-2.919a.1.1 0 01-.08-.16l1.184-1.566c.633.348 1.37.547 2.155.547zm-2.967 3.003c.654-.45 1.58-.77 2.651-.824h.008c.102-.005.204-.007.308-.007 1.203 0 2.249.337 2.966.831.722.498 1.03 1.082 1.03 1.606s-.308 1.109-1.03 1.606c-.717.494-1.763.832-2.966.832-1.203 0-2.249-.338-2.967-.832-.722-.497-1.03-1.082-1.03-1.606s.308-1.108 1.03-1.606z" fill="#000"/><path d="M140.376 18.888h1.407v1.415h-1.407v-1.415z" fill="#FFA800"/></g><defs><clipPath id="jclip0_601:208"><path fill="#fff" transform="translate(.206)" d="M0 0h202.587v29H0z"/></clipPath></defs></symbol><symbol fill="none" viewBox="0 0 178 41" id="icon-logo-tablet" xmlns="http://www.w3.org/2000/svg"><g clip-path="url(#kclip0_602:932)"><path fill-rule="evenodd" clip-rule="evenodd" d="M6.638 0h3.513v3.46H6.638V0zm6.06 3.46h.028c5.09 0 9.215 4.063 9.215 9.076 0 5.012-4.126 9.075-9.215 9.075h-.056v-1.686h.057c4.116 0 7.453-3.308 7.453-7.39 0-4.08-3.337-7.39-7.453-7.39l-.038.001h-.02V3.46h.03z" fill="#FFA800"/><path fill-rule="evenodd" clip-rule="evenodd" d="M12.666 0v1.73c6.038 0 10.933 4.82 10.933 10.768 0 5.947-4.895 10.769-10.933 10.769v1.73c7.008 0 12.69-5.596 12.69-12.499C25.355 5.596 19.673 0 12.665 0zM4.81 19.716c-1.848-1.632-3.047-4.265-3.047-7.236 0-2.584.908-4.914 2.361-6.55V3.295C1.638 5.27 0 8.646 0 12.48c0 4.177 1.944 7.81 4.81 9.679v-2.442zm5.515-12.835v5.533l1.425-2.88-1.282-2.653h-.143zm-.319 15.816v-8.38l-1.42 4.19 1.42 4.19zm-3.178-8.38v8.38l1.42-4.19-1.42-4.19zm-.32-7.436h-.142L5.083 9.535l1.424 2.88V6.88zm2.777 0v-.71H7.547v.71h-.251l1.12 2.309 1.12-2.31h-.252zm-.691 2.673l1.383 2.86h.03V6.881H9.89L8.593 9.554zm-1.046 3.877v.71h-.443l1.312 3.87 1.312-3.87h-.444v-.71H7.547zm1.737-.314v-.703h.339L8.416 9.92l-1.207 2.495h.338v.703h1.737zM8.24 9.554L6.942 6.881h-.115v5.533h.029l1.383-2.86zm2.582-2.673l1.25 2.587-.002.138-1.409 2.808h.385v1.727h-.72v9.125h.72V25h-1.76v-1.734h.577l-1.446-4.263-1.446 4.263h.577V25h-1.76v-1.734h.72V14.14h-.72v-1.727h.385l-1.41-2.808v-.138l1.25-2.587h-.225V5.146h1.76v.71h1.737v-.71h1.761v1.735h-.224z" fill="#7048B8"/><path fill-rule="evenodd" clip-rule="evenodd" d="M35.02 3.177v1.751h1.75V3.177h-1.75zm0 2.91v12.15h1.75V6.086h-1.75zm6.62 2.757c.677-.489 1.48-.993 2.342-.993h1.025c1.931 0 3.497 1.544 3.497 3.448v6.883h-1.748V11.3c0-.952-.783-1.724-1.75-1.724h-1.024c-1.448 0-2.623 1.158-2.623 2.586v6.075h-1.748V7.865h1.748v.84c0 .142.165.223.281.139zm10.102-1.006V5.265h1.749v2.573h2.486v1.724h-2.486v6.063c0 .64.683 1.058 1.264.772l1.653-.813v1.927l-.873.429c-1.744.857-3.793-.393-3.793-2.315V9.562h-1.503V7.838h1.503zm44.864-2.579v2.573h-1.503v1.724h1.503v6.064c0 1.921 2.049 3.171 3.793 2.314l.873-.429V15.58l-1.653.812c-.581.286-1.265-.13-1.265-.771V9.556h2.487V7.832h-2.487V5.259h-1.748zm-34.29 2.632c-2.596 0-4.7 2.132-4.7 4.76v.803c0 2.63 2.105 4.76 4.7 4.76.932 0 2.356-.214 3.825-.85v-1.965c-1.464.8-2.975 1.045-3.825 1.045-1.547 0-2.816-1.206-2.94-2.74h7.64v-1.052c0-2.63-2.105-4.76-4.7-4.76zm0 1.772c1.385 0 2.547.966 2.865 2.27h-5.73c.318-1.304 1.48-2.27 2.865-2.27zm18.962-.864c0 .15.181.23.3.14a5.271 5.271 0 013.197-1.071h.41v1.724h-.41c-1.931 0-3.497 1.544-3.497 3.448v5.176h-1.749V7.864h1.749V8.8zm35.329.126c-.12.091-.301.01-.301-.14v-.934h-1.749v10.352h1.749v-5.176c0-1.905 1.566-3.448 3.497-3.448h.409V7.854h-.409a5.27 5.27 0 00-3.196 1.071zm-9.093-1.074c-2.712 0-4.911 2.168-4.911 4.843v.673c0 2.674 2.199 4.842 4.911 4.842 2.713 0 4.912-2.168 4.912-4.842v-.674c0-2.674-2.199-4.842-4.912-4.842zm-3.162 4.843c0-1.723 1.416-3.119 3.162-3.119 1.747 0 3.163 1.396 3.163 3.119v.673c0 1.722-1.416 3.118-3.163 3.118-1.746 0-3.162-1.396-3.162-3.118v-.674zM86.059 10.62l.106-.051a10.51 10.51 0 013.095-.958c.102-.015.205-.022.307-.022h.53c.916 0 1.66.732 1.66 1.636v.276h-3.075c-2.075 0-3.757 1.659-3.757 3.705 0 1.653 1.36 2.993 3.037 2.993h.715c.085 0 .204.001.32-.005a5.582 5.582 0 002.76-.959v.974h1.748v-6.984c0-1.856-1.525-3.36-3.408-3.36h-.53a3.89 3.89 0 00-.564.04 12.28 12.28 0 00-2.944.815v1.9zm5.698 2.606v1.58a3.776 3.776 0 01-2.862 1.666c-.057.003-.11.003-.192.003h-.742a1.279 1.279 0 01-1.287-1.27c0-1.093.9-1.98 2.008-1.98h3.075zm-18.799.047c1.288 0 2.117-.931 2.117-1.829 0-.897-.83-1.828-2.117-1.828-1.288 0-2.118.93-2.118 1.828s.83 1.829 2.118 1.829zm0 1.724c2.135 0 3.866-1.59 3.866-3.553a3.3 3.3 0 00-.363-1.505h1.087V8.215h-2.977a4.14 4.14 0 00-1.613-.324c-2.135 0-3.866 1.591-3.866 3.553 0 .891.357 1.705.946 2.329l-1.899 1.945c-.507.52-.134 1.387.599 1.387h.368c-.61.543-.97 1.22-.97 1.953 0 1.793 2.159 3.246 4.822 3.246 2.663 0 4.822-1.453 4.822-3.246s-2.159-3.246-4.822-3.246a6.166 6.166 0 00-.1 0H70.28a.172.172 0 01-.126-.292l.94-.963c.553.28 1.189.44 1.865.44zm2.424 4.932c.555-.373.65-.711.65-.871 0-.16-.095-.498-.65-.872-.546-.367-1.398-.65-2.424-.65s-1.878.283-2.424.65c-.555.374-.65.712-.65.872 0 .16.095.498.65.871.546.368 1.398.651 2.424.651s1.878-.283 2.424-.65zM178 2.696v15.527h-.874V2.696H178zm-48.716 15.54V3.554h-.874v14.682h.874zm2.869-14.682h-.765v.862h.765c3.139 0 5.683 2.51 5.683 5.604v.97c0 3.51-2.887 6.357-6.448 6.357v.862c4.044 0 7.323-3.232 7.323-7.22v-.97c0-3.57-2.936-6.465-6.558-6.465zm9.946 2.977v.822h-.875V6.53h.875zm0 1.67V18.21h-.875V8.201h.875zm14.371-.848V6.53h-.874v.822h.874zm0 10.856V8.201h-.874V18.21h.874zm3.786-9.132l.009 6.899c.002 1.241 1.023 2.247 2.282 2.247.281 0 .56-.051.821-.15l1.764-.67v-.804l-.042-.105-2.035.774a1.435 1.435 0 01-.508.093c-.776 0-1.406-.62-1.407-1.386l-.01-6.898h3.633v-.862h-3.634l-.004-2.937-.874.001.004 2.936h-1.653v.862h1.654zm9.992-1.142c.22-.038.444-.057.667-.057 1.868 0 3.383 1.493 3.383 3.336v6.995h-.874v-2.07c-.637.8-1.308 1.296-1.868 1.602-.798.435-1.709.468-2.496.468h-.092c-1.594 0-2.887-1.274-2.887-2.846 0-1.906 1.566-3.45 3.499-3.45h3.844v-.7c0-1.365-1.124-2.473-2.509-2.473-.173 0-.347.015-.518.044l-.579.1c-.586.1-1.159.271-1.704.51l-.688.3V8.75l.333-.146a8.23 8.23 0 011.91-.571l.579-.1zm3.176 4.84v1.786c-.741 1.365-1.634 2.067-2.291 2.425-.58.317-1.282.361-2.073.361h-.092c-1.112 0-2.013-.888-2.013-1.984 0-1.43 1.176-2.589 2.625-2.589h3.844zm-24.522 1.42c1.652 0 2.896-1.226 2.896-2.626s-1.244-2.627-2.896-2.627c-1.653 0-2.897 1.227-2.897 2.627 0 1.4 1.244 2.626 2.897 2.626zm0 .862c2.082 0 3.771-1.562 3.771-3.488 0-.976-.434-1.859-1.133-2.492h1.583v-.862h-3.18a4.054 4.054 0 00-1.041-.135c-2.083 0-3.771 1.562-3.771 3.489 0 .99.447 1.885 1.163 2.52l-1.128 1.464c-.425.552-.049 1.338.636 1.382-.795.536-1.286 1.277-1.286 2.096 0 1.637 1.964 2.963 4.386 2.963s4.385-1.326 4.385-2.963-1.963-2.963-4.385-2.963c-.101 0-.2.002-.298.006h-2.566a.086.086 0 01-.07-.138l1.041-1.35a3.98 3.98 0 001.893.471zm-2.607 2.59c.575-.388 1.389-.665 2.33-.71h.007c.089-.005.179-.007.27-.007 1.057 0 1.976.29 2.606.717.635.428.905.933.905 1.384 0 .452-.27.956-.905 1.384-.63.426-1.549.717-2.606.717s-1.976-.29-2.607-.717c-.634-.428-.905-.932-.905-1.384 0-.451.271-.956.905-1.384z" fill="#000"/><path d="M123.158 16.282h1.236v1.22h-1.236v-1.22z" fill="#FFA800"/></g><path d="M42.54 35.438c0 .373-.075.719-.224 1.036-.15.308-.35.579-.602.812a2.891 2.891 0 01-.882.532 3.15 3.15 0 01-1.078.182h-4.69v-9.94h4.788c.345 0 .658.075.938.224.28.15.518.345.714.588.196.233.345.504.448.812a2.643 2.643 0 01-.21 2.296c-.252.41-.602.719-1.05.924a2.45 2.45 0 011.344.938c.336.457.504.99.504 1.596zm-.98-.168c0-.243-.042-.476-.126-.7a1.706 1.706 0 00-.364-.602 1.616 1.616 0 00-.546-.42 1.38 1.38 0 00-.672-.168h-3.808v3.766h3.71a1.6 1.6 0 00.7-.154c.224-.103.415-.238.574-.406a1.907 1.907 0 00.532-1.316zm-5.516-6.356v3.668h3.416c.243 0 .467-.051.672-.154.215-.103.397-.238.546-.406a1.891 1.891 0 00.476-1.274c0-.252-.042-.49-.126-.714a1.532 1.532 0 00-.336-.574 1.473 1.473 0 00-.504-.392 1.366 1.366 0 00-.644-.154h-3.5zm8.414 5.418c0-.513.088-.999.266-1.456.177-.457.424-.854.742-1.19a3.526 3.526 0 011.162-.812 3.663 3.663 0 011.484-.294c.69 0 1.292.159 1.806.476.513.308.9.728 1.162 1.26l-.924.294a2.16 2.16 0 00-.868-.868 2.352 2.352 0 00-1.218-.322c-.374 0-.724.075-1.05.224-.318.15-.598.355-.84.616-.234.252-.42.555-.56.91a3.33 3.33 0 00-.196 1.162c0 .41.07.798.21 1.162.14.364.33.681.574.952.242.261.522.471.84.63a2.463 2.463 0 001.722.126 2.83 2.83 0 00.644-.266 2.46 2.46 0 00.504-.406c.14-.15.238-.308.294-.476l.938.28a2.478 2.478 0 01-.448.728c-.196.215-.43.406-.7.574-.262.159-.556.28-.882.364-.318.093-.65.14-.994.14a3.627 3.627 0 01-1.47-.294 3.707 3.707 0 01-1.162-.826 4.027 4.027 0 01-.77-1.218 4.029 4.029 0 01-.266-1.47zm10.317-5.194v-1.316h.812v1.316h-.812zm2.086 0v-1.316h.812v1.316h-.812zm-.588 9.002a3.627 3.627 0 01-1.47-.294 3.758 3.758 0 01-1.148-.826 4.031 4.031 0 01-.77-1.218 4.03 4.03 0 01-.266-1.47c0-.513.089-.994.266-1.442.187-.457.439-.854.756-1.19a3.527 3.527 0 011.162-.812 3.453 3.453 0 011.456-.308c.532 0 1.017.103 1.456.308.448.196.83.467 1.148.812a3.843 3.843 0 011.008 2.618v.224a.56.56 0 01-.014.154h-6.244c.028.392.117.756.266 1.092.159.327.36.611.602.854.243.243.518.434.826.574a2.621 2.621 0 001.708.098c.233-.065.448-.154.644-.266.196-.112.373-.247.532-.406.159-.168.28-.35.364-.546l.826.224c-.112.27-.27.518-.476.742a3.629 3.629 0 01-.714.574c-.27.159-.57.28-.896.364-.327.093-.667.14-1.022.14zm2.688-4.172a2.8 2.8 0 00-.28-1.064 2.718 2.718 0 00-.588-.84 2.5 2.5 0 00-.826-.546 2.518 2.518 0 00-.994-.196 2.665 2.665 0 00-1.848.742 2.85 2.85 0 00-.574.84c-.14.327-.224.681-.252 1.064h5.362zm6.563.364c0-.513.089-.999.266-1.456.178-.457.425-.854.742-1.19a3.526 3.526 0 011.162-.812 3.663 3.663 0 011.484-.294c.69 0 1.293.159 1.806.476.514.308.9.728 1.162 1.26l-.924.294a2.16 2.16 0 00-.868-.868 2.352 2.352 0 00-1.218-.322c-.373 0-.723.075-1.05.224a2.739 2.739 0 00-1.4 1.526c-.13.355-.196.742-.196 1.162 0 .41.07.798.21 1.162.14.364.332.681.574.952.243.261.523.471.84.63a2.463 2.463 0 001.722.126 2.83 2.83 0 00.644-.266 2.46 2.46 0 00.504-.406c.14-.15.238-.308.294-.476l.938.28a2.478 2.478 0 01-.448.728c-.196.215-.43.406-.7.574-.261.159-.555.28-.882.364-.317.093-.648.14-.994.14a3.627 3.627 0 01-1.47-.294 3.707 3.707 0 01-1.162-.826 4.027 4.027 0 01-.77-1.218 4.029 4.029 0 01-.266-1.47zm12.36-3.626a1.773 1.773 0 011.288.532c.168.159.294.345.378.56.093.215.14.448.14.7 0 .168-.023.336-.07.504a1.95 1.95 0 01-.182.49c-.084.15-.192.29-.322.42-.13.121-.285.22-.462.294.41.112.733.327.966.644.233.317.35.7.35 1.148 0 .299-.056.57-.168.812a1.77 1.77 0 01-.448.63 2.06 2.06 0 01-.672.42c-.261.093-.546.14-.854.14h-3.514v-7.294h3.57zm-.378 3.22c.382 0 .686-.121.91-.364.224-.243.336-.55.336-.924a1.36 1.36 0 00-.28-.854c-.187-.243-.476-.364-.868-.364h-2.366v2.506h2.268zm.224 3.36c.196 0 .373-.037.532-.112.168-.075.308-.173.42-.294.112-.13.2-.275.266-.434a1.32 1.32 0 00.098-.504c0-.336-.117-.635-.35-.896-.224-.261-.537-.392-.938-.392h-2.52v2.632h2.492zm5.774-2.184a2.218 2.218 0 01-1.106-.714c-.29-.355-.434-.826-.434-1.414 0-.327.06-.63.182-.91a2.161 2.161 0 011.246-1.19 2.77 2.77 0 01.98-.168h2.604V38h-.938v-2.772h-1.582L82.608 38H81.53l1.974-2.898zm2.534-.7v-2.87h-1.624c-.196 0-.387.033-.574.098a1.4 1.4 0 00-.476.294 1.348 1.348 0 00-.462 1.05c0 .43.126.775.378 1.036.261.261.602.392 1.022.392h1.736zm3.208-2.926a2.54 2.54 0 01.91-.672c.354-.15.737-.224 1.148-.224.644 0 1.152.159 1.526.476.373.317.56.742.56 1.274 0 .43-.117.789-.35 1.078-.224.29-.532.467-.924.532.522.075.933.29 1.232.644.298.345.448.78.448 1.302 0 .336-.061.644-.182.924a2.03 2.03 0 01-.518.7 2.46 2.46 0 01-.812.462 3.136 3.136 0 01-1.05.168c-.504 0-.934-.089-1.288-.266a2.917 2.917 0 01-.938-.798l.532-.658c.214.299.457.523.728.672.28.14.616.21 1.008.21.513 0 .905-.126 1.176-.378.28-.261.42-.611.42-1.05 0-.485-.168-.859-.504-1.12-.336-.261-.817-.392-1.442-.392h-.49v-.742h.49c.494 0 .882-.103 1.162-.308.28-.215.42-.518.42-.91 0-.327-.112-.583-.336-.77-.224-.187-.532-.28-.924-.28-.28 0-.546.051-.798.154a2.345 2.345 0 00-.728.518l-.476-.546zm8.528 6.664c-.345 0-.667-.056-.966-.168a2.64 2.64 0 01-.77-.49 2.254 2.254 0 01-.504-.714 2.228 2.228 0 01-.182-.896c0-.317.075-.611.224-.882.15-.27.36-.504.63-.7a2.98 2.98 0 01.966-.448 4.274 4.274 0 011.232-.168c.374 0 .752.033 1.134.098a4.92 4.92 0 011.022.28v-.658c0-.644-.182-1.153-.546-1.526-.364-.383-.868-.574-1.512-.574-.373 0-.756.075-1.148.224-.392.15-.788.364-1.19.644l-.336-.63c.943-.635 1.858-.952 2.744-.952.915 0 1.633.257 2.156.77.523.513.784 1.223.784 2.128v3.29c0 .261.117.392.35.392V38c-.159.028-.28.042-.364.042-.243 0-.434-.06-.574-.182-.131-.121-.201-.29-.21-.504l-.028-.574c-.336.439-.76.775-1.274 1.008-.504.233-1.05.35-1.638.35zm.224-.728c.495 0 .947-.093 1.358-.28.42-.187.737-.434.952-.742a.793.793 0 00.182-.266.68.68 0 00.07-.28v-1.19a5.782 5.782 0 00-2.03-.378c-.672 0-1.218.14-1.638.42-.42.28-.63.649-.63 1.106 0 .224.042.434.126.63.093.196.215.369.364.518a1.876 1.876 0 001.246.462zm7.097-3.556h4.088v-3.15h.938V38h-.938v-3.346h-4.088V38h-.938v-7.294h.938v3.15zm10.809 4.284a3.53 3.53 0 01-1.456-.294 3.77 3.77 0 01-1.148-.826 3.798 3.798 0 01-.742-1.204 3.96 3.96 0 01-.266-1.442c0-.513.089-.999.266-1.456.187-.457.439-.859.756-1.204a3.77 3.77 0 011.148-.826c.439-.205.92-.308 1.442-.308a3.36 3.36 0 011.442.308c.448.205.831.48 1.148.826.327.345.579.747.756 1.204.187.457.28.943.28 1.456 0 .504-.088.985-.266 1.442a3.645 3.645 0 01-.756 1.204c-.317.345-.7.62-1.148.826a3.527 3.527 0 01-1.456.294zm-2.646-3.752c0 .41.07.793.21 1.148.14.345.327.653.56.924.243.261.523.467.84.616.327.15.672.224 1.036.224a2.37 2.37 0 001.022-.224c.327-.159.612-.369.854-.63a3.085 3.085 0 00.784-2.086c0-.401-.07-.78-.21-1.134a2.875 2.875 0 00-.574-.938 2.562 2.562 0 00-.854-.63 2.252 2.252 0 00-1.022-.238c-.364 0-.704.08-1.022.238-.317.15-.597.36-.84.63-.242.27-.434.588-.574.952-.14.355-.21.737-.21 1.148z" fill="#929292"/><defs><clipPath id="kclip0_602:932"><path fill="#fff" d="M0 0h178v25H0z"/></clipPath></defs></symbol><symbol fill="none" viewBox="0 0 18 18" id="icon-phone" xmlns="http://www.w3.org/2000/svg"><path d="M6.366 7.682a10.556 10.556 0 003.952 3.952l.884-1.238a1 1 0 011.294-.296 11.422 11.422 0 004.583 1.364 1 1 0 01.921.997v4.462a1 1 0 01-.898.995A15.51 15.51 0 0115.5 18C6.94 18 0 11.06 0 2.5 0 1.962.027 1.428.082.898A1 1 0 011.077 0h4.462a1 1 0 01.997.921A11.422 11.422 0 007.9 5.504a1 1 0 01-.296 1.294l-1.238.884zm-2.522-.657l1.9-1.357A13.41 13.41 0 014.647 2H2.01c-.006.166-.009.333-.009.5C2 9.956 8.044 16 15.5 16c.167 0 .334-.003.5-.01v-2.637a13.413 13.413 0 01-3.668-1.097l-1.357 1.9a12.446 12.446 0 01-1.588-.75l-.058-.033a12.556 12.556 0 01-4.702-4.702l-.033-.058a12.442 12.442 0 01-.75-1.588z" fill="#7041C5"/></symbol><symbol fill="none" viewBox="0 0 18 18" id="icon-phone-black" xmlns="http://www.w3.org/2000/svg"><path d="M16.5 12.69v2.25a1.502 1.502 0 01-1.635 1.5 14.843 14.843 0 01-6.472-2.303 14.626 14.626 0 01-4.5-4.5A14.843 14.843 0 011.59 3.135 1.5 1.5 0 013.083 1.5h2.25a1.5 1.5 0 011.5 1.29 9.63 9.63 0 00.525 2.107A1.5 1.5 0 017.02 6.48l-.952.952a12 12 0 004.5 4.5l.952-.952a1.5 1.5 0 011.583-.338c.68.254 1.387.43 2.107.526a1.5 1.5 0 011.29 1.522z" fill="#000"/></symbol><symbol viewBox="0 0 20 20" id="icon-search" xmlns="http://www.w3.org/2000/svg"><path fill-rule="evenodd" clip-rule="evenodd" d="M.994 8.038a7.03 7.03 0 017.033-7.033 7.03 7.03 0 017.033 7.033 7.03 7.03 0 01-7.033 7.033A7.037 7.037 0 01.994 8.038zm1.279 0a5.746 5.746 0 015.754-5.754 5.746 5.746 0 015.754 5.754 5.746 5.746 0 01-5.754 5.754 5.754 5.754 0 01-5.754-5.754zM13.78 13.6h-.639l5.307 5.754.907-.908-5.575-5.486v.64z"/><path d="M13.142 13.6v-.5a.5.5 0 00-.367.84l.367-.34zm.64 0v.5a.5.5 0 00.5-.5h-.5zm4.667 5.755l-.368.339a.5.5 0 00.721.014l-.353-.353zm.907-.908l.354.353a.5.5 0 00-.003-.71l-.35.357zm-5.575-5.486l.351-.356a.5.5 0 00-.85.356h.5zM8.027.505A7.53 7.53 0 00.494 8.038h1a6.53 6.53 0 016.533-6.533v-1zm7.533 7.533A7.53 7.53 0 008.027.505v1a6.53 6.53 0 016.533 6.533h1zM8.027 15.57a7.529 7.529 0 007.533-7.533h-1a6.529 6.529 0 01-6.533 6.533v1zM.494 8.038c0 4.15 3.37 7.533 7.533 7.533v-1a6.537 6.537 0 01-6.533-6.533h-1zm7.533-6.254a6.246 6.246 0 00-6.254 6.254h1a5.246 5.246 0 015.254-5.254v-1zm6.254 6.254a6.246 6.246 0 00-6.254-6.254v1a5.246 5.246 0 015.254 5.254h1zm-6.254 6.254a6.246 6.246 0 006.254-6.254h-1a5.246 5.246 0 01-5.254 5.254v1zM1.773 8.038a6.254 6.254 0 006.254 6.254v-1a5.254 5.254 0 01-5.254-5.254h-1zm11.37 6.063h.638v-1h-.639v1zm5.673 4.915l-5.306-5.754-.735.678 5.306 5.754.735-.678zm.187-.923l-.908.908.707.707.908-.908-.707-.707zm-5.572-4.775l5.575 5.485.701-.713-5.575-5.485-.701.713zm.85.283v-.64h-1v.64h1z"/></symbol><symbol fill="none" viewBox="0 0 15 14" id="icon-telegram" xmlns="http://www.w3.org/2000/svg"><path d="M15 .96l-2.373 11.96s-.332.83-1.244.432L5.91 9.155l-1.991-.963L.567 7.064s-.515-.183-.564-.58c-.05-.399.58-.614.58-.614L13.905.644S15 .163 15 .959z" fill="#fff"/><path d="M8.047 11.052l-2.33 2.125s-.182.138-.382.052c-.294-.043-1.155-3.112-1.69-4.944L4.094 8l3.954 3.052z" fill="#A68CD5"/><path d="M5.335 13.229c-.318-.03-1.526-4.409-1.69-4.944l8.66-5.5c.45-.273.691-.058.303.304-.267.25-6.802 6.124-6.802 6.124l-.471 4.016z" fill="#B29DD9"/></symbol><symbol fill="none" viewBox="0 0 20 18" id="icon-telegram-header" xmlns="http://www.w3.org/2000/svg"><path d="M.35 8.64l4.599 1.769 1.792 5.95c.078.402.546.482.858.241l2.571-2.17c.234-.242.624-.242.935 0l4.599 3.457c.311.24.779.08.857-.322L19.99.68c.078-.402-.312-.805-.701-.644L.35 7.595c-.468.16-.468.884 0 1.045zm6.157.884l9.04-5.709c.157-.08.313.161.157.242L8.3 11.213c-.234.241-.468.563-.468.965l-.233 1.93c0 .24-.39.321-.468 0l-.935-3.538c-.234-.402-.078-.885.311-1.046z" fill="#7041C5"/></symbol><symbol fill="none" viewBox="0 0 30 30" id="icon-telegramm" xmlns="http://www.w3.org/2000/svg"><path fill-rule="evenodd" clip-rule="evenodd" d="M15 0c8.285 0 15 6.715 15 15s-6.715 15-15 15S0 23.285 0 15 6.715 0 15 0z" fill="url(#qpaint0_linear_514:7667)"/><path d="M21.752 9.58l-2.136 10.767s-.3.747-1.12.389l-4.928-3.778-1.792-.866-3.017-1.016s-.462-.164-.507-.522c-.045-.359.523-.553.523-.553l11.99-4.704s.986-.433.986.284z" fill="#FEFEFE"/><path d="M15.493 18.666l-2.098 1.913s-.164.124-.344.046c-.264-.038-1.04-2.801-1.52-4.45l.402-.256 3.56 2.747z" fill="#B5D2E5"/><path d="M13.051 20.625c-.286-.027-1.373-3.968-1.52-4.45l7.795-4.95c.405-.247.622-.053.273.273a3705.3 3705.3 0 01-6.123 5.513l-.425 3.614z" fill="#D3E7F2"/><defs><linearGradient id="qpaint0_linear_514:7667" x1="3.974" y1="4.829" x2="27.785" y2="22.85" gradientUnits="userSpaceOnUse"><stop stop-color="#28AAE0"/><stop offset="1" stop-color="#23B7EC"/></linearGradient></defs></symbol><symbol fill="none" viewBox="0 0 16 16" id="icon-tw" xmlns="http://www.w3.org/2000/svg"><path d="M16 2.602c-.63.281-1.26.457-1.888.527a3.286 3.286 0 001.441-1.876c-.65.4-1.343.675-2.08.822C12.822 1.36 12.022 1 11.075 1c-.907 0-1.68.332-2.32.996-.64.664-.959 1.467-.959 2.409 0 .252.027.513.081.78a8.877 8.877 0 01-3.771-1.05 9.374 9.374 0 01-2.99-2.513A3.433 3.433 0 00.67 3.34c0 .583.132 1.124.396 1.623.264.5.62.903 1.066 1.212A3.163 3.163 0 01.65 5.743v.042c0 .823.249 1.544.746 2.167a3.207 3.207 0 001.883 1.175 3.28 3.28 0 01-.863.116c-.19 0-.396-.018-.62-.053.21.682.597 1.242 1.158 1.681.562.44 1.198.666 1.909.68-1.191.97-2.548 1.455-4.071 1.455-.291 0-.555-.014-.792-.042a8.865 8.865 0 005.036 1.528 9.263 9.263 0 003.278-.574c1.023-.383 1.896-.896 2.62-1.54a10.187 10.187 0 001.873-2.218 10.074 10.074 0 001.558-5.355c0-.197-.003-.344-.01-.443A7.016 7.016 0 0016 2.602z" fill="#2A2A2A"/></symbol><symbol fill="none" viewBox="0 0 16 16" id="icon-vk" xmlns="http://www.w3.org/2000/svg"><path d="M15.915 11.56a1.123 1.123 0 00-.054-.109c-.278-.519-.808-1.156-1.591-1.911l-.017-.018-.008-.008-.008-.009h-.009c-.355-.351-.58-.588-.675-.709-.172-.23-.21-.464-.116-.7.066-.18.316-.557.75-1.134.227-.305.408-.55.54-.735.962-1.326 1.378-2.174 1.25-2.543l-.05-.086c-.032-.052-.119-.1-.257-.143a1.265 1.265 0 00-.534-.021l-2.399.017a.3.3 0 00-.166.004l-.109.026-.041.022-.034.026a.377.377 0 00-.091.09.603.603 0 00-.083.152 14.369 14.369 0 01-.892 1.946 18.11 18.11 0 01-.566.93 4.447 4.447 0 01-.434.58 3.064 3.064 0 01-.316.298c-.095.075-.167.107-.217.095a5.91 5.91 0 01-.141-.035.568.568 0 01-.188-.212.976.976 0 01-.096-.337 3.858 3.858 0 01-.029-.35 7.596 7.596 0 01.005-.415c.005-.18.008-.3.008-.364 0-.219.004-.457.012-.713l.021-.61c.006-.15.008-.308.008-.476 0-.167-.01-.298-.029-.393a1.383 1.383 0 00-.087-.277.462.462 0 00-.17-.208.943.943 0 00-.28-.116A5.347 5.347 0 007.697 3c-1.032-.011-1.696.058-1.99.208a1.13 1.13 0 00-.317.26c-.1.126-.114.195-.042.207.333.052.57.176.708.372l.05.104a1.7 1.7 0 01.117.397c.039.19.064.401.075.632.028.42.028.781 0 1.08-.028.3-.054.534-.08.701a1.443 1.443 0 01-.212.597.146.146 0 01-.041.043.604.604 0 01-.225.044c-.078 0-.172-.04-.283-.121a2.03 2.03 0 01-.346-.333 4.453 4.453 0 01-.404-.593 10.47 10.47 0 01-.467-.9l-.133-.25a21.907 21.907 0 01-.342-.705 13.859 13.859 0 01-.383-.895.568.568 0 00-.2-.277l-.041-.026a.86.86 0 00-.325-.13l-2.283.017c-.233 0-.391.055-.475.165l-.033.052A.289.289 0 000 3.788c0 .064.017.141.05.234.333.813.696 1.597 1.087 2.352.392.755.732 1.364 1.02 1.825.29.461.584.897.884 1.306.3.41.498.672.595.787.097.116.174.202.23.26l.208.207c.133.138.329.304.587.497.258.194.544.384.858.571.314.188.679.34 1.095.459.417.118.822.165 1.217.143h.958c.194-.018.341-.081.441-.19l.033-.044a.586.586 0 00.063-.16.91.91 0 00.029-.238 2.956 2.956 0 01.054-.67 1.81 1.81 0 01.142-.45 1.106 1.106 0 01.32-.38.52.52 0 01.067-.03c.133-.047.29-.002.471.134.18.135.35.302.508.501.159.2.349.423.57.67.223.248.417.433.584.554l.166.104c.112.07.256.133.434.19a.902.902 0 00.466.043l2.133-.034c.21 0 .375-.036.491-.108.117-.072.186-.152.209-.238a.694.694 0 00.004-.294c-.02-.11-.04-.186-.059-.23z" fill="#2A2A2A"/></symbol><symbol fill="none" viewBox="0 0 16 16" id="icon-whatsapp" xmlns="http://www.w3.org/2000/svg"><path d="M7.996.5a7.5 7.5 0 00-6.072 11.895l-.938 2.786 2.886-.922A7.5 7.5 0 107.996.5zm3.986 10.606l-.799.798c-.84.84-3.067-.084-5.04-2.062-1.975-1.978-2.86-4.2-2.061-5.03l.798-.799a.838.838 0 011.135 0l1.177 1.174a.782.782 0 01-.294 1.301.763.763 0 00-.505.926c.21.881 1.345 1.974 2.186 2.184a.8.8 0 00.917-.51.784.784 0 011.312-.294l1.176 1.177a.838.838 0 01-.002 1.135z" fill="#fff"/></symbol><symbol fill="none" viewBox="0 0 30 30" id="icon-whatsapp-footer" xmlns="http://www.w3.org/2000/svg"><path d="M15 30c8.284 0 15-6.716 15-15 0-8.284-6.716-15-15-15C6.716 0 0 6.716 0 15c0 8.284 6.716 15 15 15z" fill="#4CAF50"/><path d="M15 7.105a7.895 7.895 0 00-6.393 12.523l-.986 2.933 3.037-.97A7.895 7.895 0 1015 7.104zm4.196 11.165l-.84.841c-.885.884-3.23-.089-5.308-2.17-2.078-2.083-3.01-4.422-2.169-5.296l.84-.841a.882.882 0 011.195 0l1.24 1.235a.824.824 0 01-.31 1.37.803.803 0 00-.531.975c.22.928 1.415 2.078 2.301 2.3a.843.843 0 00.965-.537.826.826 0 011.382-.31l1.237 1.24a.882.882 0 01-.002 1.193z" fill="#fff"/></symbol><symbol fill="none" viewBox="0 0 20 20" id="icon-whatsapp-header" xmlns="http://www.w3.org/2000/svg"><path d="M17.073 2.917A9.932 9.932 0 0010.035 0C4.53 0 .07 4.444.07 9.93c0 1.737.487 3.473 1.324 4.931L0 20l5.296-1.389a10.188 10.188 0 004.739 1.18c5.505 0 9.965-4.444 9.965-9.93-.07-2.57-1.045-5.07-2.927-6.944zm-2.23 10.555c-.209.556-1.184 1.111-1.672 1.18-.418.07-.976.07-1.533-.069-.349-.139-.837-.277-1.394-.555-2.509-1.042-4.112-3.542-4.251-3.75-.14-.14-1.045-1.32-1.045-2.57 0-1.25.627-1.805.836-2.083.209-.278.488-.278.697-.278h.488c.139 0 .348-.07.557.417.21.486.697 1.736.767 1.805a.44.44 0 010 .417c-.07.139-.14.278-.28.417-.138.139-.278.347-.348.416-.139.14-.278.278-.139.487.14.277.627 1.041 1.394 1.736.975.833 1.742 1.11 2.02 1.25.28.139.419.07.558-.07.14-.139.627-.694.767-.972s.348-.208.557-.139c.21.07 1.464.695 1.673.833.279.14.418.209.488.278.07.209.07.695-.14 1.25z" fill="#7041C5"/></symbol></svg>