<?xml version="1.0" encoding="utf-8"?><svg xmlns="http://www.w3.org/2000/svg" xmlns:xlink="http://www.w3.org/1999/xlink"><symbol fill="none" viewBox="0 0 102 67" id="icon-01" xmlns="http://www.w3.org/2000/svg"><path d="M40.857 58.969l.811.585.002-.002-.813-.583zM6.01 58.617l-.818.576.001.002.817-.578zM40.682 9.18l-.82.573.004.005.816-.578zM27.937 48.817l-.951-.307-.003.01.954.297zm0-29.794l-.953.301.001.003.953-.305zm17.633 14.94c0 11.297-1.9 19.375-5.525 24.422l1.625 1.167c3.992-5.558 5.9-14.15 5.9-25.588h-2zm-5.523 24.42c-3.58 4.958-9.074 7.496-16.68 7.496v2c8.098 0 14.265-2.736 18.301-8.325l-1.621-1.17zm-16.68 7.496c-7.403 0-12.86-2.636-16.542-7.84l-1.633 1.156c4.112 5.812 10.226 8.684 18.175 8.684v-2zm-16.54-7.837C3.1 52.748 1.164 44.772 1.164 33.964h-2c0 10.99 1.96 19.449 6.027 25.229l1.636-1.151zM1.164 33.964c0-11.355 1.9-19.478 5.527-24.556L5.063 8.246C1.073 13.833-.836 22.467-.836 33.964h2zM6.691 9.408c3.582-5.015 9.075-7.579 16.676-7.579v-2c-8.102 0-14.269 2.768-18.304 8.417l1.628 1.162zM23.367 1.83c7.368 0 12.812 2.66 16.495 7.923l1.639-1.147C37.39 2.735 31.293-.17 23.367-.17v2zm16.499 7.928c3.752 5.293 5.704 13.31 5.704 24.207h2c0-11.076-1.973-19.582-6.073-25.364l-1.631 1.157zM16.435 33.964c0 7.258.448 12.404 1.413 15.301l1.898-.632c-.851-2.552-1.311-7.396-1.311-14.67h-2zm1.413 15.301c.488 1.465 1.172 2.66 2.106 3.495.954.853 2.11 1.276 3.413 1.276v-2c-.836 0-1.51-.258-2.08-.767-.59-.527-1.121-1.375-1.541-2.636l-1.898.632zm5.52 4.771c1.322 0 2.49-.438 3.446-1.32.933-.861 1.607-2.093 2.078-3.6l-1.909-.597c-.408 1.306-.936 2.183-1.526 2.728-.567.524-1.245.79-2.09.79v2zm5.521-4.911c.962-2.978 1.41-8.072 1.41-15.161h-2c0 7.09-.458 11.899-1.313 14.546l1.903.615zm1.41-15.161c0-7.12-.448-12.24-1.409-15.246l-1.905.609c.856 2.678 1.315 7.517 1.315 14.637h2zM28.892 18.72c-.484-1.531-1.163-2.781-2.091-3.656-.952-.897-2.115-1.35-3.433-1.35v2c.82 0 1.49.267 2.061.805.595.561 1.132 1.464 1.556 2.804l1.907-.603zm-5.524-5.005c-1.306 0-2.463.429-3.417 1.29-.933.844-1.616 2.05-2.103 3.527l1.9.627c.42-1.277.953-2.136 1.544-2.67.57-.514 1.243-.774 2.076-.774v-2zm-5.52 4.818c-.964 2.924-1.412 8.113-1.412 15.43h2c0-7.332.46-12.221 1.312-14.804l-1.9-.627zM91.131 66v1h1v-1h-1zm-17.622 0h-1v1h1v-1zm.263-45.352l1 .052.154-3.03L73 20.013l.772.635zM69.73 24.78l.637.772.015-.012.014-.013-.665-.747zm-7.294 6.02l-.776.632.635.781.777-.64-.636-.772zm-9.01-11.073l-.63-.776-.776.631.631.776.776-.631zM75.487 1.752v-1h-.356l-.275.225.631.775zm15.645 0h1v-1h-1v1zm0 63.248H73.509v2H91.13v-2zM74.51 66V31.986h-2V66h2zm0-34.014c0-4.117.087-7.879.262-11.286l-1.997-.103c-.177 3.448-.265 7.245-.265 11.39h2zM73 20.013c-1.044 1.27-2.353 2.61-3.936 4.02l1.33 1.493c1.641-1.461 3.027-2.875 4.15-4.242L73 20.014zm-3.907 3.995l-7.295 6.02 1.273 1.543 7.295-6.02-1.273-1.543zm-5.883 6.16l-9.008-11.073-1.552 1.262 9.009 11.074 1.551-1.262zm-9.153-9.667L76.118 2.527 74.855.977 52.795 18.95l1.262 1.55zm21.43-17.75H91.13V.753H75.486v2zm14.644-.999V66h2V1.752h-2z" fill="#FFA800"/><path d="M46.57 33.964c0 11.367-1.904 19.702-5.713 25.005-3.808 5.273-9.638 7.91-17.49 7.91-7.676 0-13.462-2.754-17.358-8.262C2.112 53.08.164 44.862.164 33.964c0-11.426 1.904-19.805 5.713-25.137C9.686 3.495 15.516.83 23.367.83c7.647 0 13.418 2.783 17.315 8.35 3.925 5.537 5.888 13.798 5.888 24.785zm-29.135 0c0 7.266.454 12.26 1.362 14.985.908 2.725 2.431 4.087 4.57 4.087 2.168 0 3.692-1.406 4.57-4.219.909-2.812 1.363-7.763 1.363-14.853 0-7.12-.454-12.1-1.363-14.941-.908-2.872-2.431-4.307-4.57-4.307-2.139 0-3.662 1.377-4.57 4.13-.908 2.755-1.362 7.794-1.362 15.118zM91.13 66H73.509V31.986c0-4.13.088-7.91.263-11.338-1.084 1.319-2.431 2.696-4.043 4.131l-7.294 6.02-9.01-11.073L75.487 1.752h15.645V66z" fill="url(#apaint0_linear_495:5103)"/><defs><linearGradient id="apaint0_linear_495:5103" x1="81.5" y1="2.633" x2="81.5" y2="67.584" gradientUnits="userSpaceOnUse"><stop offset=".758" stop-color="#FFA901" stop-opacity="0"/><stop offset=".761" stop-color="#FFA800"/></linearGradient></defs></symbol><symbol fill="none" viewBox="0 0 102 67" id="icon-02" xmlns="http://www.w3.org/2000/svg"><path d="M40.857 58.969l.811.585.002-.002-.813-.583zM6.01 58.617l-.818.576.001.002.817-.578zM40.682 9.18l-.82.573.004.005.816-.578zM27.937 48.817l-.951-.307-.003.01.954.297zm0-29.794l-.953.301.001.003.953-.305zm17.633 14.94c0 11.297-1.9 19.375-5.525 24.422l1.625 1.167c3.992-5.558 5.9-14.15 5.9-25.588h-2zm-5.523 24.42c-3.58 4.958-9.074 7.496-16.68 7.496v2c8.098 0 14.265-2.736 18.301-8.325l-1.621-1.17zm-16.68 7.496c-7.403 0-12.86-2.636-16.542-7.84l-1.633 1.156c4.112 5.812 10.226 8.684 18.175 8.684v-2zm-16.54-7.837C3.1 52.748 1.164 44.772 1.164 33.964h-2c0 10.99 1.96 19.449 6.027 25.229l1.636-1.151zM1.164 33.964c0-11.355 1.9-19.478 5.527-24.556L5.063 8.246C1.073 13.833-.836 22.467-.836 33.964h2zM6.691 9.408c3.582-5.015 9.075-7.579 16.676-7.579v-2c-8.102 0-14.269 2.768-18.304 8.417l1.628 1.162zM23.367 1.83c7.368 0 12.812 2.66 16.495 7.923l1.639-1.147C37.39 2.735 31.293-.17 23.367-.17v2zm16.499 7.928c3.752 5.293 5.704 13.31 5.704 24.207h2c0-11.076-1.973-19.582-6.073-25.364l-1.631 1.157zM16.435 33.964c0 7.258.448 12.404 1.413 15.301l1.898-.632c-.851-2.552-1.311-7.396-1.311-14.67h-2zm1.413 15.301c.488 1.465 1.172 2.66 2.106 3.495.954.853 2.11 1.276 3.413 1.276v-2c-.836 0-1.51-.258-2.08-.767-.59-.527-1.121-1.375-1.541-2.636l-1.898.632zm5.52 4.771c1.322 0 2.49-.438 3.446-1.32.933-.861 1.607-2.093 2.078-3.6l-1.909-.597c-.408 1.306-.936 2.183-1.526 2.728-.567.524-1.245.79-2.09.79v2zm5.521-4.911c.962-2.978 1.41-8.072 1.41-15.161h-2c0 7.09-.458 11.899-1.313 14.546l1.903.615zm1.41-15.161c0-7.12-.448-12.24-1.409-15.246l-1.905.609c.856 2.678 1.315 7.517 1.315 14.637h2zM28.892 18.72c-.484-1.531-1.163-2.781-2.091-3.656-.952-.897-2.115-1.35-3.433-1.35v2c.82 0 1.49.267 2.061.805.595.561 1.132 1.464 1.556 2.804l1.907-.603zm-5.524-5.005c-1.306 0-2.463.429-3.417 1.29-.933.844-1.616 2.05-2.103 3.527l1.9.627c.42-1.277.953-2.136 1.544-2.67.57-.514 1.243-.774 2.076-.774v-2zm-5.52 4.818c-.964 2.924-1.412 8.113-1.412 15.43h2c0-7.332.46-12.221 1.312-14.804l-1.9-.627zM99.041 66v1h1v-1h-1zm-46.626 0h-1v1h1v-1zm0-11.426l-.711-.703-.289.292v.411h1zM68.103 38.71l.712.703.005-.006.006-.006-.722-.691zm8.79-9.58l.776.63.006-.007-.782-.623zm2.856-4.439l-.911-.412-.004.01-.004.008.919.394zm-11.514-7.514l.487.873.004-.002-.49-.871zm-6.987 5.097l-.76.65.653.765.761-.658-.654-.757zm-9.536-11.162l-.667-.745-.729.651.636.744.76-.65zm8.35-6.328l.487.873.009-.005-.496-.868zM67.4 1.84l-.245-.97-.002.001.247.969zm20.083 1.186l-.41.912.003.002.407-.914zm7.603 6.285l-.836.548.007.01.829-.558zm1.758 16.084l-.958-.289-.003.012.96.277zm-2.9 6.328l.84.54.004-.005-.845-.535zm-5.274 6.504l-.72-.694-.005.005.725.689zM74.74 51.234l-.668-.744-.333.298v.446h1zm0 .44h-1v1h1v-1zm24.301 0h1v-1h-1v1zm0 13.326H52.415v2h46.626v-2zm-45.626 1V54.574h-2V66h2zm-.289-10.723l15.689-15.864-1.422-1.406-15.69 15.863 1.422 1.406zm15.7-15.876c4.478-4.683 7.437-7.905 8.844-9.642L76.115 28.5c-1.347 1.662-4.248 4.827-8.735 9.519l1.445 1.382zm8.849-9.648c1.401-1.76 2.415-3.32 2.993-4.668l-1.838-.788c-.477 1.113-1.367 2.512-2.72 4.21l1.565 1.246zm2.985-4.65a10.28 10.28 0 00.924-4.279h-2a8.278 8.278 0 01-.746 3.455l1.822.825zm.924-4.279c0-1.908-.63-3.515-1.96-4.701l-1.332 1.492c.839.748 1.292 1.777 1.292 3.21h2zm-1.96-4.701c-1.324-1.18-3.115-1.704-5.236-1.704v2c1.804 0 3.06.443 3.904 1.196l1.332-1.492zm-5.236-1.704c-2.223 0-4.44.646-6.644 1.886l.982 1.743c1.958-1.103 3.84-1.63 5.662-1.63v-2zm-6.64 1.884c-2.13 1.188-4.517 2.933-7.154 5.215l1.308 1.513c2.578-2.23 4.85-3.883 6.82-4.98l-.973-1.748zm-5.74 5.322l-9.536-11.162-1.52 1.299 9.536 11.162 1.52-1.3zm-9.63-9.767c3.29-2.94 6.009-4.993 8.171-6.2l-.975-1.747c-2.35 1.312-5.196 3.477-8.529 6.456l1.333 1.49zm8.18-6.206c2.174-1.242 4.536-2.19 7.09-2.843L67.153.87c-2.72.695-5.25 1.71-7.588 3.045l.993 1.736zm7.087-2.843c2.572-.65 5.476-.98 8.72-.98v-2c-3.377 0-6.45.344-9.21 1.041l.49 1.94zm8.72-.98c4.042 0 7.605.711 10.708 2.11l.821-1.824c-3.4-1.532-7.25-2.286-11.529-2.286v2zm10.71 2.11c3.126 1.396 5.503 3.372 7.175 5.92l1.672-1.097c-1.903-2.9-4.593-5.114-8.03-6.649l-.816 1.827zm7.182 5.93c1.7 2.524 2.553 5.36 2.553 8.538h2c0-3.56-.963-6.789-2.895-9.655l-1.658 1.117zm2.553 8.538c0 2.434-.31 4.665-.924 6.699l1.915.577c.676-2.243 1.01-4.67 1.01-7.276h-2zm-.927 6.711c-.587 2.038-1.511 4.061-2.784 6.07l1.689 1.07c1.364-2.152 2.373-4.348 3.017-6.587l-1.922-.553zm-2.78 6.064c-1.275 1.983-2.989 4.1-5.154 6.351l1.442 1.387c2.23-2.32 4.031-4.538 5.393-6.657l-1.682-1.081zm-5.158 6.356c-2.136 2.251-6.75 6.56-13.873 12.952l1.335 1.489c7.114-6.382 11.788-10.745 13.988-13.064l-1.45-1.377zM73.739 51.234v.44h2v-.44h-2zm1 1.44h24.302v-2H74.739v2zm23.302-1V66h2V51.674h-2z" fill="#FFA800"/><path d="M46.57 33.964c0 11.367-1.904 19.702-5.713 25.005-3.808 5.273-9.638 7.91-17.49 7.91-7.676 0-13.462-2.754-17.358-8.262C2.112 53.08.164 44.862.164 33.964c0-11.426 1.904-19.805 5.713-25.137C9.686 3.495 15.516.83 23.367.83c7.647 0 13.418 2.783 17.315 8.35 3.925 5.537 5.888 13.798 5.888 24.785zm-29.135 0c0 7.266.454 12.26 1.362 14.985.908 2.725 2.431 4.087 4.57 4.087 2.168 0 3.692-1.406 4.57-4.219.909-2.812 1.363-7.763 1.363-14.853 0-7.12-.454-12.1-1.363-14.941-.908-2.872-2.431-4.307-4.57-4.307-2.139 0-3.662 1.377-4.57 4.13-.908 2.755-1.362 7.794-1.362 15.118zM99.04 66H52.415V54.574L68.103 38.71c4.483-4.688 7.413-7.88 8.79-9.58 1.376-1.729 2.329-3.208 2.856-4.439.557-1.23.835-2.52.835-3.867 0-1.67-.542-2.988-1.626-3.955-1.084-.967-2.607-1.45-4.57-1.45-2.022 0-4.073.586-6.153 1.758-2.05 1.142-4.38 2.842-6.987 5.097l-9.536-11.162c3.31-2.959 6.094-5.068 8.35-6.328 2.255-1.289 4.702-2.27 7.338-2.944 2.666-.674 5.655-1.01 8.965-1.01 4.16 0 7.866.732 11.118 2.196 3.282 1.465 5.816 3.56 7.603 6.285 1.816 2.695 2.725 5.727 2.725 9.096 0 2.52-.323 4.849-.967 6.988-.615 2.138-1.582 4.248-2.9 6.328-1.319 2.05-3.077 4.218-5.274 6.504-2.168 2.285-6.812 6.62-13.93 13.007v.44h24.3V66z" fill="url(#bpaint0_linear_490:4643)"/><defs><linearGradient id="bpaint0_linear_490:4643" x1="81.5" y1="2.633" x2="81.5" y2="67.584" gradientUnits="userSpaceOnUse"><stop offset=".562" stop-color="#FFA901" stop-opacity="0"/><stop offset=".563" stop-color="#FFA800"/></linearGradient></defs></symbol><symbol fill="none" viewBox="0 0 102 67" id="icon-03" xmlns="http://www.w3.org/2000/svg"><path d="M40.857 58.969l.811.585.002-.002-.813-.583zM6.01 58.617l-.818.576.001.002.817-.578zM40.682 9.18l-.82.573.004.005.816-.578zM27.937 48.817l-.951-.307-.003.01.954.297zm0-29.794l-.953.301.001.003.953-.305zm17.633 14.94c0 11.297-1.9 19.375-5.525 24.422l1.625 1.167c3.992-5.558 5.9-14.15 5.9-25.588h-2zm-5.523 24.42c-3.58 4.958-9.074 7.496-16.68 7.496v2c8.098 0 14.265-2.736 18.301-8.325l-1.621-1.17zm-16.68 7.496c-7.403 0-12.86-2.636-16.542-7.84l-1.633 1.156c4.112 5.812 10.226 8.684 18.175 8.684v-2zm-16.54-7.837C3.1 52.748 1.164 44.772 1.164 33.964h-2c0 10.99 1.96 19.449 6.027 25.229l1.636-1.151zM1.164 33.964c0-11.355 1.9-19.478 5.527-24.556L5.063 8.246C1.073 13.833-.836 22.467-.836 33.964h2zM6.691 9.408c3.582-5.015 9.075-7.579 16.676-7.579v-2c-8.102 0-14.269 2.768-18.304 8.417l1.628 1.162zM23.367 1.83c7.368 0 12.812 2.66 16.495 7.923l1.639-1.147C37.39 2.735 31.293-.17 23.367-.17v2zm16.499 7.928c3.752 5.293 5.704 13.31 5.704 24.207h2c0-11.076-1.973-19.582-6.073-25.364l-1.631 1.157zM16.435 33.964c0 7.258.448 12.404 1.413 15.301l1.898-.632c-.851-2.552-1.311-7.396-1.311-14.67h-2zm1.413 15.301c.488 1.465 1.172 2.66 2.106 3.495.954.853 2.11 1.276 3.413 1.276v-2c-.836 0-1.51-.258-2.08-.767-.59-.527-1.121-1.375-1.541-2.636l-1.898.632zm5.52 4.771c1.322 0 2.49-.438 3.446-1.32.933-.861 1.607-2.093 2.078-3.6l-1.909-.597c-.408 1.306-.936 2.183-1.526 2.728-.567.524-1.245.79-2.09.79v2zm5.521-4.911c.962-2.978 1.41-8.072 1.41-15.161h-2c0 7.09-.458 11.899-1.313 14.546l1.903.615zm1.41-15.161c0-7.12-.448-12.24-1.409-15.246l-1.905.609c.856 2.678 1.315 7.517 1.315 14.637h2zM28.892 18.72c-.484-1.531-1.163-2.781-2.091-3.656-.952-.897-2.115-1.35-3.433-1.35v2c.82 0 1.49.267 2.061.805.595.561 1.132 1.464 1.556 2.804l1.907-.603zm-5.524-5.005c-1.306 0-2.463.429-3.417 1.29-.933.844-1.616 2.05-2.103 3.527l1.9.627c.42-1.277.953-2.136 1.544-2.67.57-.514 1.243-.774 2.076-.774v-2zm-5.52 4.818c-.964 2.924-1.412 8.113-1.412 15.43h2c0-7.332.46-12.221 1.312-14.804l-1.9-.627zm75.393 7.432l.76.65.003-.004-.763-.646zm-10.547 6.196l-.27-.963-.73.205v.758h1zm0 .264h-1v.882l.876.11.124-.992zm8.965 29.311l-.585-.81-.003.001.588.81zm-29.311 4.395l-.168.986h.002l.166-.986zm-9.537-2.725h-1v.687l.642.247.358-.934zm0-14.414l.455-.89-1.455-.743v1.633h1zm8.57 3.208l-.236.972.012.003.224-.975zm16.392-.571l.52.853.004-.002-.525-.851zm1.274-9.097l-.729.685.005.005.006.006.718-.696zM74.65 40.38l-.239.97.013.004.226-.974zm-11.865-.747h-1v1h1v-1zm0-13.052v-1h-1v1h1zM78.08 16.034l-.537.844.009.005.528-.849zm-17.973 2.9l-.85.528.53.853.85-.533-.53-.847zm-7.209-11.6l-.567-.823-.785.541.503.81.85-.528zm10.415-5.01l-.268-.963h-.002l.27.963zm32.575 13.36c0 3.762-1.142 6.957-3.41 9.637l1.525 1.292c2.594-3.063 3.885-6.723 3.885-10.93h-2zm-3.408 9.633c-2.271 2.654-5.595 4.633-10.056 5.883l.54 1.926c4.737-1.328 8.444-3.48 11.036-6.509l-1.52-1.3zm-10.787 6.846v.264h2v-.264h-2zm.876 1.256c5.244.66 9.031 2.212 11.5 4.547 2.443 2.309 3.708 5.49 3.708 9.666h2c0-4.613-1.415-8.361-4.334-11.12-2.892-2.734-7.147-4.389-12.625-5.077l-.25 1.984zm15.208 14.213c0 5.663-2.225 10.06-6.704 13.296l1.17 1.621c5.014-3.62 7.534-8.627 7.534-14.917h-2zM91.07 60.928c-4.485 3.26-10.813 4.95-19.1 4.95v2c8.53 0 15.328-1.736 20.276-5.332l-1.176-1.618zm-19.1 4.95c-3.409 0-6.56-.245-9.457-.732l-.332 1.972c3.021.508 6.285.76 9.79.76v-2zm-9.456-.732c-2.85-.485-5.965-1.372-9.345-2.672l-.717 1.867c3.475 1.336 6.719 2.265 9.727 2.777l.335-1.972zm-8.704-1.739V48.993h-2v14.414h2zm-1.454-13.523c2.878 1.469 5.808 2.566 8.788 3.289l.471-1.944c-2.82-.683-5.603-1.724-8.35-3.127l-.91 1.782zm8.8 3.292c2.987.687 5.759 1.036 8.31 1.036v-2c-2.371 0-4.99-.325-7.862-.985l-.448 1.949zm8.31 1.036c3.856 0 6.855-.526 8.826-1.729l-1.041-1.707c-1.486.907-4.024 1.436-7.785 1.436v2zm8.83-1.73c2.09-1.29 3.112-3.318 3.112-5.906h-2c0 1.983-.735 3.323-2.161 4.203l1.05 1.702zm3.112-5.906c0-1.925-.5-3.557-1.644-4.739l-1.436 1.392c.672.694 1.08 1.757 1.08 3.347h2zm-1.633-4.727c-1.1-1.171-2.784-1.953-4.898-2.443l-.451 1.948c1.929.447 3.175 1.101 3.891 1.864l1.458-1.37zm-4.884-2.44c-2.131-.525-4.857-.776-8.15-.776v2c3.211 0 5.759.247 7.671.718l.479-1.942zm-8.15-.776h-3.955v2h3.955v-2zm-2.955 1V26.58h-2v13.052h2zm-1-12.052h4.043v-2h-4.043v2zm4.043 0c4.462 0 7.96-.565 10.376-1.802 1.223-.625 2.197-1.437 2.863-2.459.669-1.027.989-2.208.989-3.506h-2c0 .957-.232 1.75-.665 2.414-.436.67-1.116 1.268-2.098 1.77-1.992 1.02-5.109 1.583-9.465 1.583v2zm14.228-7.767c0-2.006-.806-3.606-2.45-4.629l-1.056 1.698c.993.618 1.506 1.538 1.506 2.93h2zm-2.441-4.623c-1.505-.958-3.458-1.387-5.766-1.387v2c2.086 0 3.62.391 4.692 1.074l1.074-1.688zm-5.766-1.387c-4.334 0-8.764 1.456-13.275 4.283l1.061 1.695c4.278-2.68 8.344-3.978 12.214-3.978v-2zm-11.895 4.603L53.748 6.805l-1.699 1.056 7.207 11.601 1.699-1.055zm-7.489-10.25c3.319-2.29 6.691-3.908 10.118-4.871l-.541-1.925C59.38 2.39 55.809 4.11 52.331 6.51l1.135 1.646zm10.116-4.87c3.469-.967 7.463-1.458 11.992-1.458v-2c-4.67 0-8.85.505-12.529 1.531l.537 1.927zm11.992-1.458c6.533 0 11.52 1.297 15.073 3.775l1.144-1.64C87.784 1.169 82.343-.17 75.574-.17v2zm15.073 3.775c3.51 2.449 5.24 5.775 5.24 10.079h2c0-4.954-2.047-8.894-6.096-11.719l-1.144 1.64z" fill="#FFA800"/><path d="M46.57 33.964c0 11.367-1.904 19.702-5.713 25.005-3.808 5.273-9.638 7.91-17.49 7.91-7.676 0-13.462-2.754-17.358-8.262C2.112 53.08.164 44.862.164 33.964c0-11.426 1.904-19.805 5.713-25.137C9.686 3.495 15.516.83 23.367.83c7.647 0 13.418 2.783 17.315 8.35 3.925 5.537 5.888 13.798 5.888 24.785zm-29.135 0c0 7.266.454 12.26 1.362 14.985.908 2.725 2.431 4.087 4.57 4.087 2.168 0 3.692-1.406 4.57-4.219.909-2.812 1.363-7.763 1.363-14.853 0-7.12-.454-12.1-1.363-14.941-.908-2.872-2.431-4.307-4.57-4.307-2.139 0-3.662 1.377-4.57 4.13-.908 2.755-1.362 7.794-1.362 15.118zm79.453-18.281c0 3.984-1.216 7.412-3.648 10.283-2.431 2.842-5.947 4.907-10.547 6.196v.264c10.723 1.347 16.084 6.416 16.084 15.205 0 5.976-2.373 10.679-7.119 14.106-4.717 3.428-11.28 5.142-19.687 5.142-3.457 0-6.665-.25-9.624-.747-2.93-.498-6.109-1.406-9.537-2.725V48.993c2.813 1.436 5.67 2.505 8.57 3.208 2.93.674 5.625 1.01 8.086 1.01 3.808 0 6.577-.526 8.306-1.581 1.757-1.084 2.636-2.769 2.636-5.054 0-1.758-.454-3.105-1.362-4.043-.908-.967-2.373-1.684-4.395-2.153-2.021-.498-4.658-.747-7.91-.747h-3.955V26.58h4.043c8.819 0 13.228-2.256 13.228-6.767 0-1.7-.66-2.96-1.978-3.78-1.289-.82-3.032-1.23-5.23-1.23-4.101 0-8.349 1.377-12.744 4.13L52.898 7.334c3.399-2.344 6.87-4.014 10.415-5.01C66.888 1.327 70.975.83 75.575.83c6.65 0 11.865 1.318 15.645 3.955 3.779 2.637 5.669 6.27 5.669 10.899z" fill="url(#cpaint0_linear_490:4654)"/><defs><linearGradient id="cpaint0_linear_490:4654" x1="81.5" y1="2.633" x2="81.5" y2="67.584" gradientUnits="userSpaceOnUse"><stop offset=".375" stop-color="#FFA901" stop-opacity="0"/><stop offset=".377" stop-color="#FFA800"/></linearGradient></defs></symbol><symbol fill="none" viewBox="0 0 102 67" id="icon-04" xmlns="http://www.w3.org/2000/svg"><path d="M40.857 58.969l.811.585.002-.002-.813-.583zM6.01 58.617l-.818.576.001.002.817-.578zM40.682 9.18l-.82.573.004.005.816-.578zM27.937 48.817l-.951-.307-.003.01.954.297zm0-29.794l-.953.301.001.003.953-.305zm17.633 14.94c0 11.297-1.9 19.375-5.525 24.422l1.625 1.167c3.992-5.558 5.9-14.15 5.9-25.588h-2zm-5.523 24.42c-3.58 4.958-9.074 7.496-16.68 7.496v2c8.098 0 14.265-2.736 18.301-8.325l-1.621-1.17zm-16.68 7.496c-7.403 0-12.86-2.636-16.542-7.84l-1.633 1.156c4.112 5.812 10.226 8.684 18.175 8.684v-2zm-16.54-7.837C3.1 52.748 1.164 44.772 1.164 33.964h-2c0 10.99 1.96 19.449 6.027 25.229l1.636-1.151zM1.164 33.964c0-11.355 1.9-19.478 5.527-24.556L5.063 8.246C1.073 13.833-.836 22.467-.836 33.964h2zM6.691 9.408c3.582-5.015 9.075-7.579 16.676-7.579v-2c-8.102 0-14.269 2.768-18.304 8.417l1.628 1.162zM23.367 1.83c7.368 0 12.812 2.66 16.495 7.923l1.639-1.147C37.39 2.735 31.293-.17 23.367-.17v2zm16.499 7.928c3.752 5.293 5.704 13.31 5.704 24.207h2c0-11.076-1.973-19.582-6.073-25.364l-1.631 1.157zM16.435 33.964c0 7.258.448 12.404 1.413 15.301l1.898-.632c-.851-2.552-1.311-7.396-1.311-14.67h-2zm1.413 15.301c.488 1.465 1.172 2.66 2.106 3.495.954.853 2.11 1.276 3.413 1.276v-2c-.836 0-1.51-.258-2.08-.767-.59-.527-1.121-1.375-1.541-2.636l-1.898.632zm5.52 4.771c1.322 0 2.49-.438 3.446-1.32.933-.861 1.607-2.093 2.078-3.6l-1.909-.597c-.408 1.306-.936 2.183-1.526 2.728-.567.524-1.245.79-2.09.79v2zm5.521-4.911c.962-2.978 1.41-8.072 1.41-15.161h-2c0 7.09-.458 11.899-1.313 14.546l1.903.615zm1.41-15.161c0-7.12-.448-12.24-1.409-15.246l-1.905.609c.856 2.678 1.315 7.517 1.315 14.637h2zM28.892 18.72c-.484-1.531-1.163-2.781-2.091-3.656-.952-.897-2.115-1.35-3.433-1.35v2c.82 0 1.49.267 2.061.805.595.561 1.132 1.464 1.556 2.804l1.907-.603zm-5.524-5.005c-1.306 0-2.463.429-3.417 1.29-.933.844-1.616 2.05-2.103 3.527l1.9.627c.42-1.277.953-2.136 1.544-2.67.57-.514 1.243-.774 2.076-.774v-2zm-5.52 4.818c-.964 2.924-1.412 8.113-1.412 15.43h2c0-7.332.46-12.221 1.312-14.804l-1.9-.627zm83.259 35.03v1h1v-1h-1zm-7.075 0v-1h-1v1h1zm0 12.436v1h1v-1h-1zm-17.138 0h-1v1h1v-1zm0-12.437h1v-1h-1v1zm-25.62 0h-1v1h1v-1zm0-12.744l-.826-.564-.175.255v.31h1zM77.99 1.752v-1h-.527l-.298.435.825.565zm16.04 0h1v-1h-1v1zm0 38.848h-1v1h1v-1zm7.075 0h1v-1h-1v1zm-24.213 0v1h1v-1h-1zm.131-13.14l-.999-.049v.012l1 .037zm.264-3.78l.895.448.723-1.447h-1.618v1zm-.483 0v-1h-.652l-.263.597.915.404zm-3.384 6.33l.83.558.006-.01.005-.008-.841-.54zM66.3 40.6l-.83-.557-1.046 1.558h1.877v-1zm34.805 11.965H94.03v2h7.075v-2zm-8.075 1V66h2V53.563h-2zm1 11.436H76.893v2H94.03v-2zm-16.138 1V53.563h-2V66h2zm-1-13.437h-25.62v2h25.62v-2zm-24.62 1V40.82h-2v12.744h2zm-.175-12.18l26.72-39.067-1.651-1.129-26.719 39.068 1.65 1.129zM77.99 2.753h16.04v-2H77.99v2zm15.04-1V40.6h2V1.752h-2zm1 39.848h7.075v-2H94.03v2zm6.075-1v12.963h2V40.6h-2zm-22.213 0V33.13h-2v7.47h2zm0-7.471c0-1.388.043-3.264.13-5.632l-1.998-.074a162.117 162.117 0 00-.132 5.706h2zm.13-5.62c.059-1.2.11-2.107.153-2.726.022-.311.04-.54.057-.694.008-.079.015-.126.019-.15.002-.012.001-.006-.003.01a.9.9 0 01-.067.179l-1.788-.895c-.058.115-.083.22-.09.25-.011.049-.02.096-.026.134a4.663 4.663 0 00-.034.26c-.02.19-.041.448-.063.767-.045.64-.097 1.564-.155 2.767l1.997.098zm-.735-4.828h-.483v2h.483v-2zm-1.398.596a45.36 45.36 0 01-3.31 6.192l1.683 1.08a47.37 47.37 0 003.456-6.464l-1.83-.808zM72.59 29.45l-7.12 10.59 1.66 1.117 7.12-10.591-1.66-1.116zM66.301 41.6h10.592v-2H66.302v2z" fill="#FFA800"/><path d="M46.57 33.964c0 11.367-1.904 19.702-5.713 25.005-3.808 5.273-9.638 7.91-17.49 7.91-7.676 0-13.462-2.754-17.358-8.262C2.112 53.08.164 44.862.164 33.964c0-11.426 1.904-19.805 5.713-25.137C9.686 3.495 15.516.83 23.367.83c7.647 0 13.418 2.783 17.315 8.35 3.925 5.537 5.888 13.798 5.888 24.785zm-29.135 0c0 7.266.454 12.26 1.362 14.985.908 2.725 2.431 4.087 4.57 4.087 2.168 0 3.692-1.406 4.57-4.219.909-2.812 1.363-7.763 1.363-14.853 0-7.12-.454-12.1-1.363-14.941-.908-2.872-2.431-4.307-4.57-4.307-2.139 0-3.662 1.377-4.57 4.13-.908 2.755-1.362 7.794-1.362 15.118zm83.671 19.6h-7.075V66H76.893V53.563h-25.62V40.82L77.99 1.752h16.04V40.6h7.075v12.963zM76.893 40.6v-7.471c0-1.406.043-3.296.131-5.669.118-2.402.206-3.662.264-3.78h-.483a46.37 46.37 0 01-3.384 6.329l-7.12 10.59h10.592z" fill="url(#dpaint0_linear_490:4663)"/><defs><linearGradient id="dpaint0_linear_490:4663" x1="81.5" y1="2.633" x2="81.5" y2="67.584" gradientUnits="userSpaceOnUse"><stop offset=".122" stop-color="#FFA901" stop-opacity="0"/><stop offset=".125" stop-color="#FFA800"/></linearGradient></defs></symbol><symbol fill="none" viewBox="0 0 102 67" id="icon-05" xmlns="http://www.w3.org/2000/svg"><path d="M46.57 33.964c0 11.367-1.904 19.702-5.713 25.005-3.808 5.273-9.638 7.91-17.49 7.91-7.676 0-13.462-2.754-17.358-8.262C2.112 53.08.164 44.862.164 33.964c0-11.426 1.904-19.805 5.713-25.137C9.686 3.495 15.516.83 23.367.83c7.647 0 13.418 2.783 17.315 8.35 3.925 5.537 5.888 13.798 5.888 24.785zm-29.135 0c0 7.266.454 12.26 1.362 14.985.908 2.725 2.431 4.087 4.57 4.087 2.168 0 3.692-1.406 4.57-4.219.909-2.812 1.363-7.763 1.363-14.853 0-7.12-.454-12.1-1.363-14.941-.908-2.872-2.431-4.307-4.57-4.307-2.139 0-3.662 1.377-4.57 4.13-.908 2.755-1.362 7.794-1.362 15.118zM78.915 23.9c3.69 0 7.016.865 9.975 2.593 2.988 1.7 5.302 4.116 6.943 7.251 1.67 3.135 2.505 6.753 2.505 10.855 0 7.177-2.168 12.685-6.504 16.523-4.307 3.838-10.84 5.757-19.6 5.757-7.5 0-13.623-1.157-18.369-3.472V49.17c2.55 1.172 5.42 2.139 8.613 2.9 3.223.762 5.992 1.143 8.306 1.143 3.223 0 5.698-.674 7.427-2.022 1.728-1.377 2.593-3.398 2.593-6.064 0-2.461-.88-4.38-2.637-5.757-1.758-1.377-4.424-2.065-7.998-2.065-2.725 0-5.669.512-8.833 1.538l-6.372-3.164L57.38 1.752h36.65V16.21H72.146l-.79 8.481c2.285-.439 3.91-.673 4.877-.703.967-.058 1.86-.088 2.681-.088z" fill="#FFA800"/></symbol><symbol viewBox="0 0 20 15" id="icon-arrow" xmlns="http://www.w3.org/2000/svg"><path fill-rule="evenodd" clip-rule="evenodd" d="M17 0L8.5 8.5 2.8 2.8 0 5.7l8.5 8.4L19.8 2.8 17 0z"/></symbol><symbol viewBox="0 0 7 12" id="icon-arrow-right" xmlns="http://www.w3.org/2000/svg"><path fill-rule="evenodd" clip-rule="evenodd" d="M.71.145L0 .855l5.15 5.14L0 11.145l.71.71 5.85-5.86L.71.145z"/></symbol><symbol fill="none" viewBox="0 0 203 29" id="icon-logo" xmlns="http://www.w3.org/2000/svg"><g clip-path="url(#hclip0_601:208)"><path fill-rule="evenodd" clip-rule="evenodd" d="M7.76 0h4v4.013h-4V0zm6.898 4.014h.032c5.792 0 10.487 4.713 10.487 10.527 0 5.814-4.695 10.528-10.487 10.528h-.065v-1.956a2.288 2.288 0 01.065 0c4.685 0 8.483-3.838 8.483-8.572 0-4.734-3.798-8.572-8.483-8.572a3.943 3.943 0 00-.065 0V4.015h.033z" fill="#FFA800"/><path fill-rule="evenodd" clip-rule="evenodd" d="M14.622 0v2.007c6.872 0 12.443 5.592 12.443 12.49 0 6.9-5.571 12.492-12.443 12.492v2.007c7.976 0 14.442-6.491 14.442-14.498S22.598 0 14.622 0zM5.679 22.871c-2.103-1.894-3.468-4.948-3.468-8.394 0-2.998 1.034-5.7 2.688-7.599V3.824C2.07 6.113.206 10.03.206 14.477c0 4.845 2.213 9.06 5.473 11.227v-2.833zm6.278-14.89v6.42l1.62-3.34-1.458-3.08h-.162zm-.364 18.347v-9.72l-1.617 4.86 1.617 4.86zm-3.617-9.72v9.72l1.617-4.86-1.617-4.86zM7.612 7.98H7.45l-1.459 3.08 1.621 3.34V7.98zm3.16 0v-.823H8.797v.823H8.51l1.274 2.679 1.275-2.679h-.286zm-.786 3.102L11.56 14.4h.033V7.98h-.131l-1.476 3.102zm-1.19 4.497v.824h-.505l1.493 4.488 1.494-4.488h-.505v-.824H8.796zm1.977-.365V14.4h.385l-1.374-2.895L8.411 14.4h.385v.814h1.977zm-1.19-4.132L8.107 7.981h-.131v6.42h.032l1.575-3.318zm2.938-3.102l1.423 3.002-.002.16L12.34 14.4h.438v2.003h-.82v10.584h.82V29h-2.004v-2.012h.657l-1.646-4.944-1.645 4.944h.657V29H6.792v-2.012h.82V16.404h-.82V14.4h.438l-1.604-3.258v-.16L7.048 7.98h-.256V5.97h2.004v.823h1.977V5.97h2.004v2.01h-.256z" fill="#7048B8"/><path fill-rule="evenodd" clip-rule="evenodd" d="M40.064 3.686v2.03h1.99v-2.03h-1.99zm0 3.375v14.093h1.99V7.061h-1.99zm7.534 3.198c.77-.567 1.685-1.152 2.666-1.152h1.166c2.198 0 3.98 1.791 3.98 4v7.985h-1.99v-7.985c0-1.104-.891-2-1.99-2h-1.166a2.993 2.993 0 00-2.986 3v7.047h-1.99V9.123h1.99v.975a.2.2 0 00.32.161zm11.497-1.167V6.107h1.99v2.985h2.83v2h-2.83v7.034a.995.995 0 001.44.895l1.88-.943v2.235l-.993.498c-1.984.994-4.317-.457-4.317-2.685v-7.034h-1.71v-2h1.71zM110.156 6.1v2.984h-1.71v2h1.71v7.034c0 2.229 2.332 3.68 4.317 2.685l.994-.498v-2.234l-1.881.942a.996.996 0 01-1.44-.895v-7.034h2.83v-2h-2.83V6.101h-1.99zM71.13 9.154c-2.954 0-5.349 2.473-5.349 5.522v.931c0 3.05 2.395 5.522 5.349 5.522 1.06 0 2.681-.249 4.353-.987v-2.279c-1.666.927-3.385 1.212-4.353 1.212-1.76 0-3.205-1.399-3.347-3.179h8.695v-1.22c0-3.05-2.394-5.522-5.348-5.522zm0 2.055c1.576 0 2.898 1.12 3.26 2.633h-6.52c.361-1.512 1.684-2.633 3.26-2.633zm21.58-1.002c0 .173.207.267.343.162a5.926 5.926 0 013.638-1.242h.467v2h-.467c-2.198 0-3.98 1.79-3.98 4v6.003h-1.99V9.123h1.99v1.084zm40.21.146c-.137.106-.343.011-.343-.161V9.107h-1.99v12.008h1.99v-6.004c0-2.209 1.782-4 3.981-4h.465v-2h-.465c-1.37 0-2.631.463-3.638 1.242zm-10.348-1.246c-3.087 0-5.59 2.515-5.59 5.618v.78c0 3.103 2.503 5.618 5.59 5.618 3.086 0 5.589-2.515 5.589-5.617v-.781c0-3.103-2.503-5.618-5.589-5.618zm-3.6 5.618a3.608 3.608 0 013.6-3.618 3.608 3.608 0 013.599 3.618v.78a3.608 3.608 0 01-3.599 3.618c-1.989 0-3.6-1.62-3.6-3.617v-.781zm-20.82-2.405l.121-.06a11.796 11.796 0 013.523-1.111 2.36 2.36 0 01.349-.026h.603c1.043 0 1.889.85 1.889 1.898v.32h-3.499c-2.361 0-4.276 1.925-4.276 4.298a3.464 3.464 0 003.456 3.472h.814c.097 0 .232.001.363-.006a6.272 6.272 0 003.142-1.112v1.13h1.99v-8.102c0-2.153-1.736-3.898-3.879-3.898h-.603a4.35 4.35 0 00-.642.048c-1.153.172-2.278.49-3.35.945v2.204zm6.485 3.022v1.833a4.276 4.276 0 01-3.257 1.933 3.535 3.535 0 01-.218.003h-.844a1.47 1.47 0 01-1.465-1.472 2.291 2.291 0 012.285-2.297h3.499zm-21.395.054c1.465 0 2.41-1.08 2.41-2.12 0-1.042-.945-2.122-2.41-2.122-1.466 0-2.41 1.08-2.41 2.121s.944 2.121 2.41 2.121zm0 2c2.43 0 4.4-1.845 4.4-4.12a3.89 3.89 0 00-.413-1.747h1.237v-2h-3.388a4.635 4.635 0 00-1.836-.375c-2.43 0-4.4 1.845-4.4 4.121 0 1.034.406 1.978 1.077 2.702l-2.161 2.256c-.578.603-.153 1.609.68 1.609h.42c-.694.63-1.105 1.415-1.105 2.265 0 2.08 2.457 3.766 5.489 3.766 3.031 0 5.488-1.686 5.488-3.766s-2.457-3.765-5.488-3.765a7.99 7.99 0 00-.114 0h-2.935a.2.2 0 01-.143-.339l1.07-1.117c.629.325 1.352.51 2.122.51zM86 23.118c.631-.433.74-.825.74-1.01 0-.186-.109-.578-.74-1.012-.622-.426-1.591-.754-2.76-.754-1.167 0-2.136.328-2.758.754-.632.434-.74.826-.74 1.011 0 .186.108.578.74 1.011.621.427 1.59.755 2.759.755 1.168 0 2.137-.328 2.759-.755zM202.793 3.127v18.012h-.995V3.127h.995zm-55.444 18.027V4.123h-.995v17.031h.995zm3.265-17.031h-.871v1h.871c3.572 0 6.468 2.91 6.468 6.5v1.125c0 4.073-3.286 7.375-7.339 7.375v1c4.602 0 8.334-3.75 8.334-8.375v-1.125c0-4.142-3.342-7.5-7.463-7.5zm11.319 3.453v.953h-.995v-.953h.995zm0 1.938v11.609h-.995V9.513h.995zm16.356-.985v-.953h-.995v.953h.995zm0 12.594V9.513h-.995v11.61h.995zm4.309-10.594l.011 8.003a2.604 2.604 0 002.597 2.607c.32 0 .637-.06.935-.175l2.007-.777v-.932l-.048-.122-2.317.898a1.6 1.6 0 01-2.179-1.5l-.011-8.002h4.135v-1h-4.136l-.005-3.407-.995.002.005 3.405h-1.882v1h1.883zm11.372-1.325c.251-.043.505-.065.759-.065 2.127 0 3.851 1.732 3.851 3.87v8.114h-.995v-2.401c-.724.926-1.489 1.503-2.125 1.857-.909.505-1.946.544-2.841.544h-.105a3.295 3.295 0 01-3.287-3.302c0-2.21 1.784-4.003 3.984-4.003h4.374v-.81a2.863 2.863 0 00-2.856-2.87 3.43 3.43 0 00-.589.052l-.659.115a8.26 8.26 0 00-1.939.591l-.783.349V10.15l.379-.169a9.237 9.237 0 012.173-.663l.659-.115zm3.615 5.614v2.073c-.843 1.583-1.86 2.398-2.607 2.813-.661.368-1.46.419-2.359.419h-.105a2.297 2.297 0 01-2.292-2.302 2.996 2.996 0 012.989-3.003h4.374zm-27.909 1.649c1.88 0 3.296-1.423 3.296-3.047s-1.416-3.047-3.296-3.047c-1.881 0-3.297 1.423-3.297 3.047s1.416 3.047 3.297 3.047zm0 1c2.37 0 4.291-1.812 4.291-4.047 0-1.133-.493-2.156-1.288-2.89h1.801v-1h-3.619a4.535 4.535 0 00-1.185-.157c-2.371 0-4.292 1.812-4.292 4.047 0 1.149.508 2.186 1.323 2.923l-1.283 1.698c-.484.64-.056 1.553.724 1.603-.905.622-1.464 1.482-1.464 2.432 0 1.899 2.235 3.438 4.992 3.438 2.756 0 4.991-1.54 4.991-3.438 0-1.898-2.235-3.437-4.991-3.437a7.65 7.65 0 00-.34.007h-2.919a.1.1 0 01-.08-.16l1.184-1.566c.633.348 1.37.547 2.155.547zm-2.967 3.003c.654-.45 1.58-.77 2.651-.824h.008c.102-.005.204-.007.308-.007 1.203 0 2.249.337 2.966.831.722.498 1.03 1.082 1.03 1.606s-.308 1.109-1.03 1.606c-.717.494-1.763.832-2.966.832-1.203 0-2.249-.338-2.967-.832-.722-.497-1.03-1.082-1.03-1.606s.308-1.108 1.03-1.606z" fill="#000"/><path d="M140.376 18.888h1.407v1.415h-1.407v-1.415z" fill="#FFA800"/></g><defs><clipPath id="hclip0_601:208"><path fill="#fff" transform="translate(.206)" d="M0 0h202.587v29H0z"/></clipPath></defs></symbol><symbol fill="none" viewBox="0 0 30 30" id="icon-telegramm" xmlns="http://www.w3.org/2000/svg"><path fill-rule="evenodd" clip-rule="evenodd" d="M15 0c8.285 0 15 6.715 15 15s-6.715 15-15 15S0 23.285 0 15 6.715 0 15 0z" fill="url(#ipaint0_linear_514:7667)"/><path d="M21.752 9.58l-2.136 10.767s-.3.747-1.12.389l-4.928-3.778-1.792-.866-3.017-1.016s-.462-.164-.507-.522c-.045-.359.523-.553.523-.553l11.99-4.704s.986-.433.986.284z" fill="#FEFEFE"/><path d="M15.493 18.666l-2.098 1.913s-.164.124-.344.046c-.264-.038-1.04-2.801-1.52-4.45l.402-.256 3.56 2.747z" fill="#B5D2E5"/><path d="M13.051 20.625c-.286-.027-1.373-3.968-1.52-4.45l7.795-4.95c.405-.247.622-.053.273.273a3705.3 3705.3 0 01-6.123 5.513l-.425 3.614z" fill="#D3E7F2"/><defs><linearGradient id="ipaint0_linear_514:7667" x1="3.974" y1="4.829" x2="27.785" y2="22.85" gradientUnits="userSpaceOnUse"><stop stop-color="#28AAE0"/><stop offset="1" stop-color="#23B7EC"/></linearGradient></defs></symbol><symbol fill="none" viewBox="0 0 30 30" id="icon-whatsapp" xmlns="http://www.w3.org/2000/svg"><path d="M15 30c8.284 0 15-6.716 15-15 0-8.284-6.716-15-15-15C6.716 0 0 6.716 0 15c0 8.284 6.716 15 15 15z" fill="#4CAF50"/><path d="M15 7.105a7.895 7.895 0 00-6.393 12.523l-.987 2.933 3.038-.971A7.896 7.896 0 1015 7.105zm4.196 11.165l-.84.84c-.885.885-3.23-.088-5.308-2.17s-3.01-4.421-2.17-5.296l.842-.84a.882.882 0 011.194 0l1.24 1.235a.822.822 0 01-.31 1.37.803.803 0 00-.532.975c.221.928 1.415 2.078 2.302 2.3a.843.843 0 00.965-.538.825.825 0 011.381-.31l1.238 1.24a.882.882 0 01-.002 1.194z" fill="#fff"/></symbol></svg>