<?xml version="1.0" encoding="utf-8"?><svg xmlns="http://www.w3.org/2000/svg" xmlns:xlink="http://www.w3.org/1999/xlink"><symbol fill="none" viewBox="0 0 102 67" id="icon-01" xmlns="http://www.w3.org/2000/svg"><path d="M40.857 58.969l.811.585.002-.002-.813-.583zM6.01 58.617l-.818.576.001.002.817-.578zM40.682 9.18l-.82.573.004.005.816-.578zM27.937 48.817l-.951-.307-.003.01.954.297zm0-29.794l-.953.301.001.003.953-.305zm17.633 14.94c0 11.297-1.9 19.375-5.525 24.422l1.625 1.167c3.992-5.558 5.9-14.15 5.9-25.588h-2zm-5.523 24.42c-3.58 4.958-9.074 7.496-16.68 7.496v2c8.098 0 14.265-2.736 18.301-8.325l-1.621-1.17zm-16.68 7.496c-7.403 0-12.86-2.636-16.542-7.84l-1.633 1.156c4.112 5.812 10.226 8.684 18.175 8.684v-2zm-16.54-7.837C3.1 52.748 1.164 44.772 1.164 33.964h-2c0 10.99 1.96 19.449 6.027 25.229l1.636-1.151zM1.164 33.964c0-11.355 1.9-19.478 5.527-24.556L5.063 8.246C1.073 13.833-.836 22.467-.836 33.964h2zM6.691 9.408c3.582-5.015 9.075-7.579 16.676-7.579v-2c-8.102 0-14.269 2.768-18.304 8.417l1.628 1.162zM23.367 1.83c7.368 0 12.812 2.66 16.495 7.923l1.639-1.147C37.39 2.735 31.293-.17 23.367-.17v2zm16.499 7.928c3.752 5.293 5.704 13.31 5.704 24.207h2c0-11.076-1.973-19.582-6.073-25.364l-1.631 1.157zM16.435 33.964c0 7.258.448 12.404 1.413 15.301l1.898-.632c-.851-2.552-1.311-7.396-1.311-14.67h-2zm1.413 15.301c.488 1.465 1.172 2.66 2.106 3.495.954.853 2.11 1.276 3.413 1.276v-2c-.836 0-1.51-.258-2.08-.767-.59-.527-1.121-1.375-1.541-2.636l-1.898.632zm5.52 4.771c1.322 0 2.49-.438 3.446-1.32.933-.861 1.607-2.093 2.078-3.6l-1.909-.597c-.408 1.306-.936 2.183-1.526 2.728-.567.524-1.245.79-2.09.79v2zm5.521-4.911c.962-2.978 1.41-8.072 1.41-15.161h-2c0 7.09-.458 11.899-1.313 14.546l1.903.615zm1.41-15.161c0-7.12-.448-12.24-1.409-15.246l-1.905.609c.856 2.678 1.315 7.517 1.315 14.637h2zM28.892 18.72c-.484-1.531-1.163-2.781-2.091-3.656-.952-.897-2.115-1.35-3.433-1.35v2c.82 0 1.49.267 2.061.805.595.561 1.132 1.464 1.556 2.804l1.907-.603zm-5.524-5.005c-1.306 0-2.463.429-3.417 1.29-.933.844-1.616 2.05-2.103 3.527l1.9.627c.42-1.277.953-2.136 1.544-2.67.57-.514 1.243-.774 2.076-.774v-2zm-5.52 4.818c-.964 2.924-1.412 8.113-1.412 15.43h2c0-7.332.46-12.221 1.312-14.804l-1.9-.627zM91.131 66v1h1v-1h-1zm-17.622 0h-1v1h1v-1zm.263-45.352l1 .052.154-3.03L73 20.013l.772.635zM69.73 24.78l.637.772.015-.012.014-.013-.665-.747zm-7.294 6.02l-.776.632.635.781.777-.64-.636-.772zm-9.01-11.073l-.63-.776-.776.631.631.776.776-.631zM75.487 1.752v-1h-.356l-.275.225.631.775zm15.645 0h1v-1h-1v1zm0 63.248H73.509v2H91.13v-2zM74.51 66V31.986h-2V66h2zm0-34.014c0-4.117.087-7.879.262-11.286l-1.997-.103c-.177 3.448-.265 7.245-.265 11.39h2zM73 20.013c-1.044 1.27-2.353 2.61-3.936 4.02l1.33 1.493c1.641-1.461 3.027-2.875 4.15-4.242L73 20.014zm-3.907 3.995l-7.295 6.02 1.273 1.543 7.295-6.02-1.273-1.543zm-5.883 6.16l-9.008-11.073-1.552 1.262 9.009 11.074 1.551-1.262zm-9.153-9.667L76.118 2.527 74.855.977 52.795 18.95l1.262 1.55zm21.43-17.75H91.13V.753H75.486v2zm14.644-.999V66h2V1.752h-2z" fill="#FFA800"/><path d="M46.57 33.964c0 11.367-1.904 19.702-5.713 25.005-3.808 5.273-9.638 7.91-17.49 7.91-7.676 0-13.462-2.754-17.358-8.262C2.112 53.08.164 44.862.164 33.964c0-11.426 1.904-19.805 5.713-25.137C9.686 3.495 15.516.83 23.367.83c7.647 0 13.418 2.783 17.315 8.35 3.925 5.537 5.888 13.798 5.888 24.785zm-29.135 0c0 7.266.454 12.26 1.362 14.985.908 2.725 2.431 4.087 4.57 4.087 2.168 0 3.692-1.406 4.57-4.219.909-2.812 1.363-7.763 1.363-14.853 0-7.12-.454-12.1-1.363-14.941-.908-2.872-2.431-4.307-4.57-4.307-2.139 0-3.662 1.377-4.57 4.13-.908 2.755-1.362 7.794-1.362 15.118zM91.13 66H73.509V31.986c0-4.13.088-7.91.263-11.338-1.084 1.319-2.431 2.696-4.043 4.131l-7.294 6.02-9.01-11.073L75.487 1.752h15.645V66z" fill="url(#apaint0_linear_495:5103)"/><defs><linearGradient id="apaint0_linear_495:5103" x1="81.5" y1="2.633" x2="81.5" y2="67.584" gradientUnits="userSpaceOnUse"><stop offset=".758" stop-color="#FFA901" stop-opacity="0"/><stop offset=".761" stop-color="#FFA800"/></linearGradient></defs></symbol><symbol viewBox="0 0 20 15" id="icon-arrow" xmlns="http://www.w3.org/2000/svg"><path fill-rule="evenodd" clip-rule="evenodd" d="M17 0L8.5 8.5 2.8 2.8 0 5.7l8.5 8.4L19.8 2.8 17 0z"/></symbol><symbol viewBox="0 0 7 12" id="icon-arrow-right" xmlns="http://www.w3.org/2000/svg"><path fill-rule="evenodd" clip-rule="evenodd" d="M.71.145L0 .855l5.15 5.14L0 11.145l.71.71 5.85-5.86L.71.145z"/></symbol><symbol fill="none" viewBox="0 0 203 29" id="icon-logo" xmlns="http://www.w3.org/2000/svg"><g clip-path="url(#dclip0_601:208)"><path fill-rule="evenodd" clip-rule="evenodd" d="M7.76 0h4v4.013h-4V0zm6.898 4.014h.032c5.792 0 10.487 4.713 10.487 10.527 0 5.814-4.695 10.528-10.487 10.528h-.065v-1.956a2.288 2.288 0 01.065 0c4.685 0 8.483-3.838 8.483-8.572 0-4.734-3.798-8.572-8.483-8.572a3.943 3.943 0 00-.065 0V4.015h.033z" fill="#FFA800"/><path fill-rule="evenodd" clip-rule="evenodd" d="M14.622 0v2.007c6.872 0 12.443 5.592 12.443 12.49 0 6.9-5.571 12.492-12.443 12.492v2.007c7.976 0 14.442-6.491 14.442-14.498S22.598 0 14.622 0zM5.679 22.871c-2.103-1.894-3.468-4.948-3.468-8.394 0-2.998 1.034-5.7 2.688-7.599V3.824C2.07 6.113.206 10.03.206 14.477c0 4.845 2.213 9.06 5.473 11.227v-2.833zm6.278-14.89v6.42l1.62-3.34-1.458-3.08h-.162zm-.364 18.347v-9.72l-1.617 4.86 1.617 4.86zm-3.617-9.72v9.72l1.617-4.86-1.617-4.86zM7.612 7.98H7.45l-1.459 3.08 1.621 3.34V7.98zm3.16 0v-.823H8.797v.823H8.51l1.274 2.679 1.275-2.679h-.286zm-.786 3.102L11.56 14.4h.033V7.98h-.131l-1.476 3.102zm-1.19 4.497v.824h-.505l1.493 4.488 1.494-4.488h-.505v-.824H8.796zm1.977-.365V14.4h.385l-1.374-2.895L8.411 14.4h.385v.814h1.977zm-1.19-4.132L8.107 7.981h-.131v6.42h.032l1.575-3.318zm2.938-3.102l1.423 3.002-.002.16L12.34 14.4h.438v2.003h-.82v10.584h.82V29h-2.004v-2.012h.657l-1.646-4.944-1.645 4.944h.657V29H6.792v-2.012h.82V16.404h-.82V14.4h.438l-1.604-3.258v-.16L7.048 7.98h-.256V5.97h2.004v.823h1.977V5.97h2.004v2.01h-.256z" fill="#7048B8"/><path fill-rule="evenodd" clip-rule="evenodd" d="M40.064 3.686v2.03h1.99v-2.03h-1.99zm0 3.375v14.093h1.99V7.061h-1.99zm7.534 3.198c.77-.567 1.685-1.152 2.666-1.152h1.166c2.198 0 3.98 1.791 3.98 4v7.985h-1.99v-7.985c0-1.104-.891-2-1.99-2h-1.166a2.993 2.993 0 00-2.986 3v7.047h-1.99V9.123h1.99v.975a.2.2 0 00.32.161zm11.497-1.167V6.107h1.99v2.985h2.83v2h-2.83v7.034a.995.995 0 001.44.895l1.88-.943v2.235l-.993.498c-1.984.994-4.317-.457-4.317-2.685v-7.034h-1.71v-2h1.71zM110.156 6.1v2.984h-1.71v2h1.71v7.034c0 2.229 2.332 3.68 4.317 2.685l.994-.498v-2.234l-1.881.942a.996.996 0 01-1.44-.895v-7.034h2.83v-2h-2.83V6.101h-1.99zM71.13 9.154c-2.954 0-5.349 2.473-5.349 5.522v.931c0 3.05 2.395 5.522 5.349 5.522 1.06 0 2.681-.249 4.353-.987v-2.279c-1.666.927-3.385 1.212-4.353 1.212-1.76 0-3.205-1.399-3.347-3.179h8.695v-1.22c0-3.05-2.394-5.522-5.348-5.522zm0 2.055c1.576 0 2.898 1.12 3.26 2.633h-6.52c.361-1.512 1.684-2.633 3.26-2.633zm21.58-1.002c0 .173.207.267.343.162a5.926 5.926 0 013.638-1.242h.467v2h-.467c-2.198 0-3.98 1.79-3.98 4v6.003h-1.99V9.123h1.99v1.084zm40.21.146c-.137.106-.343.011-.343-.161V9.107h-1.99v12.008h1.99v-6.004c0-2.209 1.782-4 3.981-4h.465v-2h-.465c-1.37 0-2.631.463-3.638 1.242zm-10.348-1.246c-3.087 0-5.59 2.515-5.59 5.618v.78c0 3.103 2.503 5.618 5.59 5.618 3.086 0 5.589-2.515 5.589-5.617v-.781c0-3.103-2.503-5.618-5.589-5.618zm-3.6 5.618a3.608 3.608 0 013.6-3.618 3.608 3.608 0 013.599 3.618v.78a3.608 3.608 0 01-3.599 3.618c-1.989 0-3.6-1.62-3.6-3.617v-.781zm-20.82-2.405l.121-.06a11.796 11.796 0 013.523-1.111 2.36 2.36 0 01.349-.026h.603c1.043 0 1.889.85 1.889 1.898v.32h-3.499c-2.361 0-4.276 1.925-4.276 4.298a3.464 3.464 0 003.456 3.472h.814c.097 0 .232.001.363-.006a6.272 6.272 0 003.142-1.112v1.13h1.99v-8.102c0-2.153-1.736-3.898-3.879-3.898h-.603a4.35 4.35 0 00-.642.048c-1.153.172-2.278.49-3.35.945v2.204zm6.485 3.022v1.833a4.276 4.276 0 01-3.257 1.933 3.535 3.535 0 01-.218.003h-.844a1.47 1.47 0 01-1.465-1.472 2.291 2.291 0 012.285-2.297h3.499zm-21.395.054c1.465 0 2.41-1.08 2.41-2.12 0-1.042-.945-2.122-2.41-2.122-1.466 0-2.41 1.08-2.41 2.121s.944 2.121 2.41 2.121zm0 2c2.43 0 4.4-1.845 4.4-4.12a3.89 3.89 0 00-.413-1.747h1.237v-2h-3.388a4.635 4.635 0 00-1.836-.375c-2.43 0-4.4 1.845-4.4 4.121 0 1.034.406 1.978 1.077 2.702l-2.161 2.256c-.578.603-.153 1.609.68 1.609h.42c-.694.63-1.105 1.415-1.105 2.265 0 2.08 2.457 3.766 5.489 3.766 3.031 0 5.488-1.686 5.488-3.766s-2.457-3.765-5.488-3.765a7.99 7.99 0 00-.114 0h-2.935a.2.2 0 01-.143-.339l1.07-1.117c.629.325 1.352.51 2.122.51zM86 23.118c.631-.433.74-.825.74-1.01 0-.186-.109-.578-.74-1.012-.622-.426-1.591-.754-2.76-.754-1.167 0-2.136.328-2.758.754-.632.434-.74.826-.74 1.011 0 .186.108.578.74 1.011.621.427 1.59.755 2.759.755 1.168 0 2.137-.328 2.759-.755zM202.793 3.127v18.012h-.995V3.127h.995zm-55.444 18.027V4.123h-.995v17.031h.995zm3.265-17.031h-.871v1h.871c3.572 0 6.468 2.91 6.468 6.5v1.125c0 4.073-3.286 7.375-7.339 7.375v1c4.602 0 8.334-3.75 8.334-8.375v-1.125c0-4.142-3.342-7.5-7.463-7.5zm11.319 3.453v.953h-.995v-.953h.995zm0 1.938v11.609h-.995V9.513h.995zm16.356-.985v-.953h-.995v.953h.995zm0 12.594V9.513h-.995v11.61h.995zm4.309-10.594l.011 8.003a2.604 2.604 0 002.597 2.607c.32 0 .637-.06.935-.175l2.007-.777v-.932l-.048-.122-2.317.898a1.6 1.6 0 01-2.179-1.5l-.011-8.002h4.135v-1h-4.136l-.005-3.407-.995.002.005 3.405h-1.882v1h1.883zm11.372-1.325c.251-.043.505-.065.759-.065 2.127 0 3.851 1.732 3.851 3.87v8.114h-.995v-2.401c-.724.926-1.489 1.503-2.125 1.857-.909.505-1.946.544-2.841.544h-.105a3.295 3.295 0 01-3.287-3.302c0-2.21 1.784-4.003 3.984-4.003h4.374v-.81a2.863 2.863 0 00-2.856-2.87 3.43 3.43 0 00-.589.052l-.659.115a8.26 8.26 0 00-1.939.591l-.783.349V10.15l.379-.169a9.237 9.237 0 012.173-.663l.659-.115zm3.615 5.614v2.073c-.843 1.583-1.86 2.398-2.607 2.813-.661.368-1.46.419-2.359.419h-.105a2.297 2.297 0 01-2.292-2.302 2.996 2.996 0 012.989-3.003h4.374zm-27.909 1.649c1.88 0 3.296-1.423 3.296-3.047s-1.416-3.047-3.296-3.047c-1.881 0-3.297 1.423-3.297 3.047s1.416 3.047 3.297 3.047zm0 1c2.37 0 4.291-1.812 4.291-4.047 0-1.133-.493-2.156-1.288-2.89h1.801v-1h-3.619a4.535 4.535 0 00-1.185-.157c-2.371 0-4.292 1.812-4.292 4.047 0 1.149.508 2.186 1.323 2.923l-1.283 1.698c-.484.64-.056 1.553.724 1.603-.905.622-1.464 1.482-1.464 2.432 0 1.899 2.235 3.438 4.992 3.438 2.756 0 4.991-1.54 4.991-3.438 0-1.898-2.235-3.437-4.991-3.437a7.65 7.65 0 00-.34.007h-2.919a.1.1 0 01-.08-.16l1.184-1.566c.633.348 1.37.547 2.155.547zm-2.967 3.003c.654-.45 1.58-.77 2.651-.824h.008c.102-.005.204-.007.308-.007 1.203 0 2.249.337 2.966.831.722.498 1.03 1.082 1.03 1.606s-.308 1.109-1.03 1.606c-.717.494-1.763.832-2.966.832-1.203 0-2.249-.338-2.967-.832-.722-.497-1.03-1.082-1.03-1.606s.308-1.108 1.03-1.606z" fill="#000"/><path d="M140.376 18.888h1.407v1.415h-1.407v-1.415z" fill="#FFA800"/></g><defs><clipPath id="dclip0_601:208"><path fill="#fff" transform="translate(.206)" d="M0 0h202.587v29H0z"/></clipPath></defs></symbol></svg>