<svg width="178" height="41" fill="none" xmlns="http://www.w3.org/2000/svg"><g clip-path="url(#clip0_602:932)"><path fill-rule="evenodd" clip-rule="evenodd" d="M6.638 0h3.513v3.46H6.638V0zm6.06 3.46h.028c5.09 0 9.215 4.063 9.215 9.076 0 5.012-4.126 9.075-9.215 9.075h-.056v-1.686h.057c4.116 0 7.453-3.308 7.453-7.39 0-4.08-3.337-7.39-7.453-7.39l-.038.001h-.02V3.46h.03z" fill="#FFA800"/><path fill-rule="evenodd" clip-rule="evenodd" d="M12.666 0v1.73c6.038 0 10.933 4.82 10.933 10.768 0 5.947-4.895 10.769-10.933 10.769v1.73c7.008 0 12.69-5.596 12.69-12.499C25.355 5.596 19.673 0 12.665 0zM4.81 19.716c-1.848-1.632-3.047-4.265-3.047-7.236 0-2.584.908-4.914 2.361-6.55V3.295C1.638 5.27 0 8.646 0 12.48c0 4.177 1.944 7.81 4.81 9.679v-2.442zm5.515-12.835v5.533l1.425-2.88-1.282-2.653h-.143zm-.319 15.816v-8.38l-1.42 4.19 1.42 4.19zm-3.178-8.38v8.38l1.42-4.19-1.42-4.19zm-.32-7.436h-.142L5.083 9.535l1.424 2.88V6.88zm2.777 0v-.71H7.547v.71h-.251l1.12 2.309 1.12-2.31h-.252zm-.691 2.673l1.383 2.86h.03V6.881H9.89L8.593 9.554zm-1.046 3.877v.71h-.443l1.312 3.87 1.312-3.87h-.444v-.71H7.547zm1.737-.314v-.703h.339L8.416 9.92l-1.207 2.495h.338v.703h1.737zM8.24 9.554L6.942 6.881h-.115v5.533h.029l1.383-2.86zm2.582-2.673l1.25 2.587-.002.138-1.409 2.808h.385v1.727h-.72v9.125h.72V25h-1.76v-1.734h.577l-1.446-4.263-1.446 4.263h.577V25h-1.76v-1.734h.72V14.14h-.72v-1.727h.385l-1.41-2.808v-.138l1.25-2.587h-.225V5.146h1.76v.71h1.737v-.71h1.761v1.735h-.224z" fill="#7048B8"/><path fill-rule="evenodd" clip-rule="evenodd" d="M35.02 3.177v1.751h1.75V3.177h-1.75zm0 2.91v12.15h1.75V6.086h-1.75zm6.62 2.757c.677-.489 1.48-.993 2.342-.993h1.025c1.931 0 3.497 1.544 3.497 3.448v6.883h-1.748V11.3c0-.952-.783-1.724-1.75-1.724h-1.024c-1.448 0-2.623 1.158-2.623 2.586v6.075h-1.748V7.865h1.748v.84c0 .142.165.223.281.139zm10.102-1.006V5.265h1.749v2.573h2.486v1.724h-2.486v6.063c0 .64.683 1.058 1.264.772l1.653-.813v1.927l-.873.429c-1.744.857-3.793-.393-3.793-2.315V9.562h-1.503V7.838h1.503zm44.864-2.579v2.573h-1.503v1.724h1.503v6.064c0 1.921 2.049 3.171 3.793 2.314l.873-.429V15.58l-1.653.812c-.581.286-1.265-.13-1.265-.771V9.556h2.487V7.832h-2.487V5.259h-1.748zm-34.29 2.632c-2.596 0-4.7 2.132-4.7 4.76v.803c0 2.63 2.105 4.76 4.7 4.76.932 0 2.356-.214 3.825-.85v-1.965c-1.464.8-2.975 1.045-3.825 1.045-1.547 0-2.816-1.206-2.94-2.74h7.64v-1.052c0-2.63-2.105-4.76-4.7-4.76zm0 1.772c1.385 0 2.547.966 2.865 2.27h-5.73c.318-1.304 1.48-2.27 2.865-2.27zm18.962-.864c0 .15.181.23.3.14a5.271 5.271 0 013.197-1.071h.41v1.724h-.41c-1.931 0-3.497 1.544-3.497 3.448v5.176h-1.749V7.864h1.749V8.8zm35.329.126c-.12.091-.301.01-.301-.14v-.934h-1.749v10.352h1.749v-5.176c0-1.905 1.566-3.448 3.497-3.448h.409V7.854h-.409a5.27 5.27 0 00-3.196 1.071zm-9.093-1.074c-2.712 0-4.911 2.168-4.911 4.843v.673c0 2.674 2.199 4.842 4.911 4.842 2.713 0 4.912-2.168 4.912-4.842v-.674c0-2.674-2.199-4.842-4.912-4.842zm-3.162 4.843c0-1.723 1.416-3.119 3.162-3.119 1.747 0 3.163 1.396 3.163 3.119v.673c0 1.722-1.416 3.118-3.163 3.118-1.746 0-3.162-1.396-3.162-3.118v-.674zM86.059 10.62l.106-.051a10.51 10.51 0 013.095-.958c.102-.015.205-.022.307-.022h.53c.916 0 1.66.732 1.66 1.636v.276h-3.075c-2.075 0-3.757 1.659-3.757 3.705 0 1.653 1.36 2.993 3.037 2.993h.715c.085 0 .204.001.32-.005a5.582 5.582 0 002.76-.959v.974h1.748v-6.984c0-1.856-1.525-3.36-3.408-3.36h-.53a3.89 3.89 0 00-.564.04 12.28 12.28 0 00-2.944.815v1.9zm5.698 2.606v1.58a3.776 3.776 0 01-2.862 1.666c-.057.003-.11.003-.192.003h-.742a1.279 1.279 0 01-1.287-1.27c0-1.093.9-1.98 2.008-1.98h3.075zm-18.799.047c1.288 0 2.117-.931 2.117-1.829 0-.897-.83-1.828-2.117-1.828-1.288 0-2.118.93-2.118 1.828s.83 1.829 2.118 1.829zm0 1.724c2.135 0 3.866-1.59 3.866-3.553a3.3 3.3 0 00-.363-1.505h1.087V8.215h-2.977a4.14 4.14 0 00-1.613-.324c-2.135 0-3.866 1.591-3.866 3.553 0 .891.357 1.705.946 2.329l-1.899 1.945c-.507.52-.134 1.387.599 1.387h.368c-.61.543-.97 1.22-.97 1.953 0 1.793 2.159 3.246 4.822 3.246 2.663 0 4.822-1.453 4.822-3.246s-2.159-3.246-4.822-3.246a6.166 6.166 0 00-.1 0H70.28a.172.172 0 01-.126-.292l.94-.963c.553.28 1.189.44 1.865.44zm2.424 4.932c.555-.373.65-.711.65-.871 0-.16-.095-.498-.65-.872-.546-.367-1.398-.65-2.424-.65s-1.878.283-2.424.65c-.555.374-.65.712-.65.872 0 .16.095.498.65.871.546.368 1.398.651 2.424.651s1.878-.283 2.424-.65zM178 2.696v15.527h-.874V2.696H178zm-48.716 15.54V3.554h-.874v14.682h.874zm2.869-14.682h-.765v.862h.765c3.139 0 5.683 2.51 5.683 5.604v.97c0 3.51-2.887 6.357-6.448 6.357v.862c4.044 0 7.323-3.232 7.323-7.22v-.97c0-3.57-2.936-6.465-6.558-6.465zm9.946 2.977v.822h-.875V6.53h.875zm0 1.67V18.21h-.875V8.201h.875zm14.371-.848V6.53h-.874v.822h.874zm0 10.856V8.201h-.874V18.21h.874zm3.786-9.132l.009 6.899c.002 1.241 1.023 2.247 2.282 2.247.281 0 .56-.051.821-.15l1.764-.67v-.804l-.042-.105-2.035.774a1.435 1.435 0 01-.508.093c-.776 0-1.406-.62-1.407-1.386l-.01-6.898h3.633v-.862h-3.634l-.004-2.937-.874.001.004 2.936h-1.653v.862h1.654zm9.992-1.142c.22-.038.444-.057.667-.057 1.868 0 3.383 1.493 3.383 3.336v6.995h-.874v-2.07c-.637.8-1.308 1.296-1.868 1.602-.798.435-1.709.468-2.496.468h-.092c-1.594 0-2.887-1.274-2.887-2.846 0-1.906 1.566-3.45 3.499-3.45h3.844v-.7c0-1.365-1.124-2.473-2.509-2.473-.173 0-.347.015-.518.044l-.579.1c-.586.1-1.159.271-1.704.51l-.688.3V8.75l.333-.146a8.23 8.23 0 011.91-.571l.579-.1zm3.176 4.84v1.786c-.741 1.365-1.634 2.067-2.291 2.425-.58.317-1.282.361-2.073.361h-.092c-1.112 0-2.013-.888-2.013-1.984 0-1.43 1.176-2.589 2.625-2.589h3.844zm-24.522 1.42c1.652 0 2.896-1.226 2.896-2.626s-1.244-2.627-2.896-2.627c-1.653 0-2.897 1.227-2.897 2.627 0 1.4 1.244 2.626 2.897 2.626zm0 .862c2.082 0 3.771-1.562 3.771-3.488 0-.976-.434-1.859-1.133-2.492h1.583v-.862h-3.18a4.054 4.054 0 00-1.041-.135c-2.083 0-3.771 1.562-3.771 3.489 0 .99.447 1.885 1.163 2.52l-1.128 1.464c-.425.552-.049 1.338.636 1.382-.795.536-1.286 1.277-1.286 2.096 0 1.637 1.964 2.963 4.386 2.963s4.385-1.326 4.385-2.963-1.963-2.963-4.385-2.963c-.101 0-.2.002-.298.006h-2.566a.086.086 0 01-.07-.138l1.041-1.35a3.98 3.98 0 001.893.471zm-2.607 2.59c.575-.388 1.389-.665 2.33-.71h.007c.089-.005.179-.007.27-.007 1.057 0 1.976.29 2.606.717.635.428.905.933.905 1.384 0 .452-.27.956-.905 1.384-.63.426-1.549.717-2.606.717s-1.976-.29-2.607-.717c-.634-.428-.905-.932-.905-1.384 0-.451.271-.956.905-1.384z" fill="#000"/><path d="M123.158 16.282h1.236v1.22h-1.236v-1.22z" fill="#FFA800"/></g><path d="M42.54 35.438c0 .373-.075.719-.224 1.036-.15.308-.35.579-.602.812a2.891 2.891 0 01-.882.532 3.15 3.15 0 01-1.078.182h-4.69v-9.94h4.788c.345 0 .658.075.938.224.28.15.518.345.714.588.196.233.345.504.448.812a2.643 2.643 0 01-.21 2.296c-.252.41-.602.719-1.05.924a2.45 2.45 0 011.344.938c.336.457.504.99.504 1.596zm-.98-.168c0-.243-.042-.476-.126-.7a1.706 1.706 0 00-.364-.602 1.616 1.616 0 00-.546-.42 1.38 1.38 0 00-.672-.168h-3.808v3.766h3.71a1.6 1.6 0 00.7-.154c.224-.103.415-.238.574-.406a1.907 1.907 0 00.532-1.316zm-5.516-6.356v3.668h3.416c.243 0 .467-.051.672-.154.215-.103.397-.238.546-.406a1.891 1.891 0 00.476-1.274c0-.252-.042-.49-.126-.714a1.532 1.532 0 00-.336-.574 1.473 1.473 0 00-.504-.392 1.366 1.366 0 00-.644-.154h-3.5zm8.414 5.418c0-.513.088-.999.266-1.456.177-.457.424-.854.742-1.19a3.526 3.526 0 011.162-.812 3.663 3.663 0 011.484-.294c.69 0 1.292.159 1.806.476.513.308.9.728 1.162 1.26l-.924.294a2.16 2.16 0 00-.868-.868 2.352 2.352 0 00-1.218-.322c-.374 0-.724.075-1.05.224-.318.15-.598.355-.84.616-.234.252-.42.555-.56.91a3.33 3.33 0 00-.196 1.162c0 .41.07.798.21 1.162.14.364.33.681.574.952.242.261.522.471.84.63a2.463 2.463 0 001.722.126 2.83 2.83 0 00.644-.266 2.46 2.46 0 00.504-.406c.14-.15.238-.308.294-.476l.938.28a2.478 2.478 0 01-.448.728c-.196.215-.43.406-.7.574-.262.159-.556.28-.882.364-.318.093-.65.14-.994.14a3.627 3.627 0 01-1.47-.294 3.707 3.707 0 01-1.162-.826 4.027 4.027 0 01-.77-1.218 4.029 4.029 0 01-.266-1.47zm10.317-5.194v-1.316h.812v1.316h-.812zm2.086 0v-1.316h.812v1.316h-.812zm-.588 9.002a3.627 3.627 0 01-1.47-.294 3.758 3.758 0 01-1.148-.826 4.031 4.031 0 01-.77-1.218 4.03 4.03 0 01-.266-1.47c0-.513.089-.994.266-1.442.187-.457.439-.854.756-1.19a3.527 3.527 0 011.162-.812 3.453 3.453 0 011.456-.308c.532 0 1.017.103 1.456.308.448.196.83.467 1.148.812a3.843 3.843 0 011.008 2.618v.224a.56.56 0 01-.014.154h-6.244c.028.392.117.756.266 1.092.159.327.36.611.602.854.243.243.518.434.826.574a2.621 2.621 0 001.708.098c.233-.065.448-.154.644-.266.196-.112.373-.247.532-.406.159-.168.28-.35.364-.546l.826.224c-.112.27-.27.518-.476.742a3.629 3.629 0 01-.714.574c-.27.159-.57.28-.896.364-.327.093-.667.14-1.022.14zm2.688-4.172a2.8 2.8 0 00-.28-1.064 2.718 2.718 0 00-.588-.84 2.5 2.5 0 00-.826-.546 2.518 2.518 0 00-.994-.196 2.665 2.665 0 00-1.848.742 2.85 2.85 0 00-.574.84c-.14.327-.224.681-.252 1.064h5.362zm6.563.364c0-.513.089-.999.266-1.456.178-.457.425-.854.742-1.19a3.526 3.526 0 011.162-.812 3.663 3.663 0 011.484-.294c.69 0 1.293.159 1.806.476.514.308.9.728 1.162 1.26l-.924.294a2.16 2.16 0 00-.868-.868 2.352 2.352 0 00-1.218-.322c-.373 0-.723.075-1.05.224a2.739 2.739 0 00-1.4 1.526c-.13.355-.196.742-.196 1.162 0 .41.07.798.21 1.162.14.364.332.681.574.952.243.261.523.471.84.63a2.463 2.463 0 001.722.126 2.83 2.83 0 00.644-.266 2.46 2.46 0 00.504-.406c.14-.15.238-.308.294-.476l.938.28a2.478 2.478 0 01-.448.728c-.196.215-.43.406-.7.574-.261.159-.555.28-.882.364-.317.093-.648.14-.994.14a3.627 3.627 0 01-1.47-.294 3.707 3.707 0 01-1.162-.826 4.027 4.027 0 01-.77-1.218 4.029 4.029 0 01-.266-1.47zm12.36-3.626a1.773 1.773 0 011.288.532c.168.159.294.345.378.56.093.215.14.448.14.7 0 .168-.023.336-.07.504a1.95 1.95 0 01-.182.49c-.084.15-.192.29-.322.42-.13.121-.285.22-.462.294.41.112.733.327.966.644.233.317.35.7.35 1.148 0 .299-.056.57-.168.812a1.77 1.77 0 01-.448.63 2.06 2.06 0 01-.672.42c-.261.093-.546.14-.854.14h-3.514v-7.294h3.57zm-.378 3.22c.382 0 .686-.121.91-.364.224-.243.336-.55.336-.924a1.36 1.36 0 00-.28-.854c-.187-.243-.476-.364-.868-.364h-2.366v2.506h2.268zm.224 3.36c.196 0 .373-.037.532-.112.168-.075.308-.173.42-.294.112-.13.2-.275.266-.434a1.32 1.32 0 00.098-.504c0-.336-.117-.635-.35-.896-.224-.261-.537-.392-.938-.392h-2.52v2.632h2.492zm5.774-2.184a2.218 2.218 0 01-1.106-.714c-.29-.355-.434-.826-.434-1.414 0-.327.06-.63.182-.91a2.161 2.161 0 011.246-1.19 2.77 2.77 0 01.98-.168h2.604V38h-.938v-2.772h-1.582L82.608 38H81.53l1.974-2.898zm2.534-.7v-2.87h-1.624c-.196 0-.387.033-.574.098a1.4 1.4 0 00-.476.294 1.348 1.348 0 00-.462 1.05c0 .43.126.775.378 1.036.261.261.602.392 1.022.392h1.736zm3.208-2.926a2.54 2.54 0 01.91-.672c.354-.15.737-.224 1.148-.224.644 0 1.152.159 1.526.476.373.317.56.742.56 1.274 0 .43-.117.789-.35 1.078-.224.29-.532.467-.924.532.522.075.933.29 1.232.644.298.345.448.78.448 1.302 0 .336-.061.644-.182.924a2.03 2.03 0 01-.518.7 2.46 2.46 0 01-.812.462 3.136 3.136 0 01-1.05.168c-.504 0-.934-.089-1.288-.266a2.917 2.917 0 01-.938-.798l.532-.658c.214.299.457.523.728.672.28.14.616.21 1.008.21.513 0 .905-.126 1.176-.378.28-.261.42-.611.42-1.05 0-.485-.168-.859-.504-1.12-.336-.261-.817-.392-1.442-.392h-.49v-.742h.49c.494 0 .882-.103 1.162-.308.28-.215.42-.518.42-.91 0-.327-.112-.583-.336-.77-.224-.187-.532-.28-.924-.28-.28 0-.546.051-.798.154a2.345 2.345 0 00-.728.518l-.476-.546zm8.528 6.664c-.345 0-.667-.056-.966-.168a2.64 2.64 0 01-.77-.49 2.254 2.254 0 01-.504-.714 2.228 2.228 0 01-.182-.896c0-.317.075-.611.224-.882.15-.27.36-.504.63-.7a2.98 2.98 0 01.966-.448 4.274 4.274 0 011.232-.168c.374 0 .752.033 1.134.098a4.92 4.92 0 011.022.28v-.658c0-.644-.182-1.153-.546-1.526-.364-.383-.868-.574-1.512-.574-.373 0-.756.075-1.148.224-.392.15-.788.364-1.19.644l-.336-.63c.943-.635 1.858-.952 2.744-.952.915 0 1.633.257 2.156.77.523.513.784 1.223.784 2.128v3.29c0 .261.117.392.35.392V38c-.159.028-.28.042-.364.042-.243 0-.434-.06-.574-.182-.131-.121-.201-.29-.21-.504l-.028-.574c-.336.439-.76.775-1.274 1.008-.504.233-1.05.35-1.638.35zm.224-.728c.495 0 .947-.093 1.358-.28.42-.187.737-.434.952-.742a.793.793 0 00.182-.266.68.68 0 00.07-.28v-1.19a5.782 5.782 0 00-2.03-.378c-.672 0-1.218.14-1.638.42-.42.28-.63.649-.63 1.106 0 .224.042.434.126.63.093.196.215.369.364.518a1.876 1.876 0 001.246.462zm7.097-3.556h4.088v-3.15h.938V38h-.938v-3.346h-4.088V38h-.938v-7.294h.938v3.15zm10.809 4.284a3.53 3.53 0 01-1.456-.294 3.77 3.77 0 01-1.148-.826 3.798 3.798 0 01-.742-1.204 3.96 3.96 0 01-.266-1.442c0-.513.089-.999.266-1.456.187-.457.439-.859.756-1.204a3.77 3.77 0 011.148-.826c.439-.205.92-.308 1.442-.308a3.36 3.36 0 011.442.308c.448.205.831.48 1.148.826.327.345.579.747.756 1.204.187.457.28.943.28 1.456 0 .504-.088.985-.266 1.442a3.645 3.645 0 01-.756 1.204c-.317.345-.7.62-1.148.826a3.527 3.527 0 01-1.456.294zm-2.646-3.752c0 .41.07.793.21 1.148.14.345.327.653.56.924.243.261.523.467.84.616.327.15.672.224 1.036.224a2.37 2.37 0 001.022-.224c.327-.159.612-.369.854-.63a3.085 3.085 0 00.784-2.086c0-.401-.07-.78-.21-1.134a2.875 2.875 0 00-.574-.938 2.562 2.562 0 00-.854-.63 2.252 2.252 0 00-1.022-.238c-.364 0-.704.08-1.022.238-.317.15-.597.36-.84.63-.242.27-.434.588-.574.952-.14.355-.21.737-.21 1.148z" fill="#929292"/><defs><clipPath id="clip0_602:932"><path fill="#fff" d="M0 0h178v25H0z"/></clipPath></defs></svg>