<svg width="19" height="18" fill="none" xmlns="http://www.w3.org/2000/svg"><g clip-path="url(#clip0_1086_3005)"><path d="M2.26 6.75c0-1.79.714-3.507 1.985-4.773A6.794 6.794 0 019.04 0c1.797 0 3.522.711 4.793 1.977a6.735 6.735 0 011.986 4.773c0 4.5-6.78 11.25-6.78 11.25S2.26 11.25 2.26 6.75zm3.954 0c0 .746.298 1.461.827 1.989a2.83 2.83 0 003.995 0 2.806 2.806 0 000-3.978 2.83 2.83 0 00-3.995 0 2.806 2.806 0 00-.827 1.989z" fill="#623FA2"/></g><defs><clipPath id="clip0_1086_3005"><path fill="#fff" d="M0 0h18.077v18H0z"/></clipPath></defs></svg>