<svg width="328" height="330" fill="none" xmlns="http://www.w3.org/2000/svg"><path fill-rule="evenodd" clip-rule="evenodd" d="M85.813 0h45.418v45.587H85.813V0zm78.343 45.59l.372-.002c65.789 0 119.123 53.54 119.123 119.583 0 66.044-53.334 119.584-119.123 119.584a52.458 52.458 0 01-.745-.006v-22.214c.249.002.496.005.745.005 53.212 0 96.349-43.593 96.349-97.369 0-53.775-43.137-97.369-96.349-97.369a45.38 45.38 0 00-.745.006V45.592c.124 0 .249 0 .373-.002z" fill="#fff"/><path fill-rule="evenodd" clip-rule="evenodd" d="M163.75 0v22.793c78.061 0 141.342 63.524 141.342 141.887S241.811 306.568 163.75 306.568v22.792c90.6 0 164.047-73.73 164.047-164.68C327.799 73.73 254.353 0 163.75 0zM62.172 259.791c-23.89-21.51-39.398-56.205-39.398-95.345 0-34.058 11.743-64.75 30.532-86.32v-34.69C21.18 69.436 0 113.926 0 164.446c0 55.034 25.132 102.913 62.172 127.528v-32.183zm71.299-169.13v72.915l18.416-37.946-16.571-34.97h-1.845zm-4.126 208.396V188.645l-18.371 55.206 18.371 55.206zM88.253 188.645v110.413l18.37-55.206-18.37-55.207zM84.126 90.66H82.28l-16.57 34.97 18.415 37.946V90.66zm35.9 0v-9.354H97.57v9.354h-3.25l14.479 30.426 14.478-30.426h-3.251zm-8.94 35.231l17.886 37.685h.373V90.66h-1.494l-16.765 35.231zM97.57 176.974v9.354h-5.737l16.966 50.984 16.966-50.984h-5.739v-9.354H97.57zm22.456-4.144v-9.254h4.372l-15.599-32.88-15.6 32.88h4.371v9.254h22.456zm-13.514-46.939l-16.766-35.23h-1.493v72.915h.372l17.887-37.685zm33.374-35.23l16.158 34.098-.015 1.81-18.215 37.007h4.976v22.752h-9.319v120.23h9.319v22.85h-22.764v-22.85h7.463l-18.69-56.168-18.69 56.168h7.462v22.85H74.807v-22.85h9.317v-120.23h-9.317v-22.752h4.976l-18.216-37.007-.015-1.81L77.711 90.66h-2.903V67.81H97.57v9.353h22.456V67.81h22.764v22.85h-2.904z" fill="#fff"/></svg>